<svg xmlns="http://www.w3.org/2000/svg" xmlns:xlink="http://www.w3.org/1999/xlink" width="914" height="42" viewBox="0 0 914 42" style="color:#354052"><rect width="914" height="42" x="0" y="0" fill="#fff"/><symbol id="icon-.5" fill="none" stroke="currentColor" stroke-linecap="round" stroke-linejoin="round" stroke-width=".5" class="icon icon-tabler icon-tabler-disabled" viewBox="0 0 24 24"><path stroke="none" d="M0 0h24v24H0z"/><circle cx="11" cy="5" r="2"/><polyline points="11 7 11 15 15 15 19 20"/><line x1="11" x2="16" y1="11" y2="11"/><path d="M7 11.5a4.97 4.97 0 1 0 6 7.5"/></symbol><symbol id="icon-1" fill="none" stroke="currentColor" stroke-linecap="round" stroke-linejoin="round" stroke-width="1" class="icon icon-tabler icon-tabler-disabled" viewBox="0 0 24 24"><path stroke="none" d="M0 0h24v24H0z"/><circle cx="11" cy="5" r="2"/><polyline points="11 7 11 15 15 15 19 20"/><line x1="11" x2="16" y1="11" y2="11"/><path d="M7 11.5a4.97 4.97 0 1 0 6 7.5"/></symbol><symbol id="icon-1.5" fill="none" stroke="currentColor" stroke-linecap="round" stroke-linejoin="round" stroke-width="1.5" class="icon icon-tabler icon-tabler-disabled" viewBox="0 0 24 24"><path stroke="none" d="M0 0h24v24H0z"/><circle cx="11" cy="5" r="2"/><polyline points="11 7 11 15 15 15 19 20"/><line x1="11" x2="16" y1="11" y2="11"/><path d="M7 11.5a4.97 4.97 0 1 0 6 7.5"/></symbol><symbol id="icon-2" fill="none" stroke="currentColor" stroke-linecap="round" stroke-linejoin="round" stroke-width="2" class="icon icon-tabler icon-tabler-disabled" viewBox="0 0 24 24"><path stroke="none" d="M0 0h24v24H0z"/><circle cx="11" cy="5" r="2"/><polyline points="11 7 11 15 15 15 19 20"/><line x1="11" x2="16" y1="11" y2="11"/><path d="M7 11.5a4.97 4.97 0 1 0 6 7.5"/></symbol><symbol id="icon-2.75" fill="none" stroke="currentColor" stroke-linecap="round" stroke-linejoin="round" stroke-width="2.75" class="icon icon-tabler icon-tabler-disabled" viewBox="0 0 24 24"><path stroke="none" d="M0 0h24v24H0z"/><circle cx="11" cy="5" r="2"/><polyline points="11 7 11 15 15 15 19 20"/><line x1="11" x2="16" y1="11" y2="11"/><path d="M7 11.5a4.97 4.97 0 1 0 6 7.5"/></symbol><use width="32" height="32" x="5" y="5" xlink:href="#icon-.5"/><use width="32" height="32" x="53" y="5" xlink:href="#icon-1"/><use width="32" height="32" x="101" y="5" xlink:href="#icon-1.5"/><use width="32" height="32" x="149" y="5" xlink:href="#icon-2"/><use width="32" height="32" x="197" y="5" xlink:href="#icon-2.75"/></svg>