<svg xmlns="http://www.w3.org/2000/svg" xmlns:xlink="http://www.w3.org/1999/xlink" width="332" height="72" viewBox="0 0 332 72" style="color:#354052"><rect width="332" height="72" x="0" y="0" fill="#fff"/><symbol id="checkbox" fill="none" stroke="currentColor" stroke-linecap="round" stroke-linejoin="round" stroke-width="2" class="icon icon-tabler icon-tabler-checkbox" viewBox="0 0 24 24"><path stroke="none" d="M0 0h24v24H0z"/><polyline points="9 11 12 14 20 6"/><path d="M20 12v6a2 2 0 0 1 -2 2h-12a2 2 0 0 1 -2 -2v-12a2 2 0 0 1 2 -2h9"/></symbol><symbol id="login" fill="none" stroke="currentColor" stroke-linecap="round" stroke-linejoin="round" stroke-width="2" class="icon icon-tabler icon-tabler-login" viewBox="0 0 24 24"><path stroke="none" d="M0 0h24v24H0z"/><path d="M14 8v-2a2 2 0 0 0 -2 -2h-7a2 2 0 0 0 -2 2v12a2 2 0 0 0 2 2h7a2 2 0 0 0 2 -2v-2"/><path d="M20 12h-13l3 -3m0 6l-3 -3"/></symbol><symbol id="logout" fill="none" stroke="currentColor" stroke-linecap="round" stroke-linejoin="round" stroke-width="2" class="icon icon-tabler icon-tabler-logout" viewBox="0 0 24 24"><path stroke="none" d="M0 0h24v24H0z"/><path d="M14 8v-2a2 2 0 0 0 -2 -2h-7a2 2 0 0 0 -2 2v12a2 2 0 0 0 2 2h7a2 2 0 0 0 2 -2v-2"/><path d="M7 12h14l-3 -3m0 6l3 -3"/></symbol><use width="24" height="24" x="24" y="24" xlink:href="#checkbox"/><use width="24" height="24" x="76" y="24" xlink:href="#login"/><use width="24" height="24" x="128" y="24" xlink:href="#logout"/></svg>