<svg xmlns="http://www.w3.org/2000/svg" xmlns:xlink="http://www.w3.org/1999/xlink" width="322" height="172" viewBox="0 0 322 172" style="color:#354052"><rect width="322" height="172" x="0" y="0" fill="#fff"/><symbol id="arrow-big-down" fill="none" stroke="currentColor" stroke-linecap="round" stroke-linejoin="round" stroke-width="2" class="icon icon-tabler icon-tabler-arrow-big-down" viewBox="0 0 24 24"><path fill="none" stroke="none" d="M0 0h24v24H0z"/><path d="M15 4v8h3.586a1 1 0 0 1 .707 1.707l-6.586 6.586a1 1 0 0 1 -1.414 0l-6.586 -6.586a1 1 0 0 1 .707 -1.707h3.586v-8a1 1 0 0 1 1 -1h4a1 1 0 0 1 1 1z"/></symbol><symbol id="arrow-big-left" fill="none" stroke="currentColor" stroke-linecap="round" stroke-linejoin="round" stroke-width="2" class="icon icon-tabler icon-tabler-arrow-big-left" viewBox="0 0 24 24"><path fill="none" stroke="none" d="M0 0h24v24H0z"/><path d="M20 15h-8v3.586a1 1 0 0 1 -1.707 .707l-6.586 -6.586a1 1 0 0 1 0 -1.414l6.586 -6.586a1 1 0 0 1 1.707 .707v3.586h8a1 1 0 0 1 1 1v4a1 1 0 0 1 -1 1z"/></symbol><symbol id="arrow-big-right" fill="none" stroke="currentColor" stroke-linecap="round" stroke-linejoin="round" stroke-width="2" class="icon icon-tabler icon-tabler-arrow-big-right" viewBox="0 0 24 24"><path fill="none" stroke="none" d="M0 0h24v24H0z"/><path d="M4 9h8v-3.586a1 1 0 0 1 1.707 -.707l6.586 6.586a1 1 0 0 1 0 1.414l-6.586 6.586a1 1 0 0 1 -1.707 -.707v-3.586h-8a1 1 0 0 1 -1 -1v-4a1 1 0 0 1 1 -1z"/></symbol><symbol id="arrow-big-top" fill="none" stroke="currentColor" stroke-linecap="round" stroke-linejoin="round" stroke-width="2" class="icon icon-tabler icon-tabler-arrow-big-top" viewBox="0 0 24 24"><path fill="none" stroke="none" d="M0 0h24v24H0z"/><path d="M9 20v-8h-3.586a1 1 0 0 1 -.707 -1.707l6.586 -6.586a1 1 0 0 1 1.414 0l6.586 6.586a1 1 0 0 1 -.707 1.707h-3.586v8a1 1 0 0 1 -1 1h-4a1 1 0 0 1 -1 -1z"/></symbol><symbol id="arrows-double-ne-sw" fill="none" stroke="currentColor" stroke-linecap="round" stroke-linejoin="round" stroke-width="2" class="icon icon-tabler icon-tabler-arrows-double-ne-sw" viewBox="0 0 24 24"><path fill="none" stroke="none" d="M0 0h24v24H0z"/><path d="M3 14l11 -11"/><path d="M10 3h4v4"/><path d="M10 17v4h4"/><path d="M21 10l-11 11"/></symbol><symbol id="arrows-double-nw-se" fill="none" stroke="currentColor" stroke-linecap="round" stroke-linejoin="round" stroke-width="2" class="icon icon-tabler icon-tabler-arrows-double-nw-se" viewBox="0 0 24 24"><path fill="none" stroke="none" d="M0 0h24v24H0z"/><path d="M14 21l-11 -11"/><path d="M3 14v-4h4"/><path d="M17 14h4v-4"/><line x1="10" x2="21" y1="3" y2="14"/></symbol><symbol id="arrows-double-se-nw" fill="none" stroke="currentColor" stroke-linecap="round" stroke-linejoin="round" stroke-width="2" class="icon icon-tabler icon-tabler-arrows-double-se-nw" viewBox="0 0 24 24"><path fill="none" stroke="none" d="M0 0h24v24H0z"/><line x1="3" x2="14" y1="10" y2="21"/><path d="M14 17v4h-4"/><path d="M14 3h-4v4"/><path d="M21 14l-11 -11"/></symbol><symbol id="arrows-double-sw-ne" fill="none" stroke="currentColor" stroke-linecap="round" stroke-linejoin="round" stroke-width="2" class="icon icon-tabler icon-tabler-arrows-double-sw-ne" viewBox="0 0 24 24"><path fill="none" stroke="none" d="M0 0h24v24H0z"/><path d="M14 3l-11 11"/><path d="M3 10v4h4"/><path d="M17 10h4v4"/><path d="M10 21l11 -11"/></symbol><symbol id="bell-minus" fill="none" stroke="currentColor" stroke-linecap="round" stroke-linejoin="round" stroke-width="2" class="icon icon-tabler icon-tabler-bell-minus" viewBox="0 0 24 24"><path fill="none" stroke="none" d="M0 0h24v24H0z"/><path d="M10 5a2 2 0 1 1 4 0a7 7 0 0 1 4 6v3a4 4 0 0 0 2 3h-16a4 4 0 0 0 2 -3v-3a7 7 0 0 1 4 -6"/><path d="M9 17v1a3 3 0 0 0 6 0v-1"/><line x1="10" x2="14" y1="11" y2="11"/></symbol><symbol id="bell-plus" fill="none" stroke="currentColor" stroke-linecap="round" stroke-linejoin="round" stroke-width="2" class="icon icon-tabler icon-tabler-bell-plus" viewBox="0 0 24 24"><path fill="none" stroke="none" d="M0 0h24v24H0z"/><path d="M10 5a2 2 0 1 1 4 0a7 7 0 0 1 4 6v3a4 4 0 0 0 2 3h-16a4 4 0 0 0 2 -3v-3a7 7 0 0 1 4 -6"/><path d="M9 17v1a3 3 0 0 0 6 0v-1"/><line x1="10" x2="14" y1="11" y2="11"/><line x1="12" x2="12" y1="9" y2="13"/></symbol><symbol id="bell-ringing-2" fill="none" stroke="currentColor" stroke-linecap="round" stroke-linejoin="round" stroke-width="2" class="icon icon-tabler icon-tabler-bell-ringing-2" viewBox="0 0 24 24"><path fill="none" stroke="none" d="M0 0h24v24H0z"/><path d="M19.364 4.636a2 2 0 0 1 0 2.828a7 7 0 0 1 -1.414 7.072l-2.122 2.12a4 4 0 0 0 -.707 3.536l-11.313 -11.312a4 4 0 0 0 3.535 -.707l2.121 -2.123a7 7 0 0 1 7.072 -1.414a2 2 0 0 1 2.828 0z"/><path d="M7.343 12.414l-.707 .707a3 3 0 0 0 4.243 4.243l.707 -.707"/></symbol><symbol id="bell-x" fill="none" stroke="currentColor" stroke-linecap="round" stroke-linejoin="round" stroke-width="2" class="icon icon-tabler icon-tabler-bell-x" viewBox="0 0 24 24"><path fill="none" stroke="none" d="M0 0h24v24H0z"/><path d="M10 5a2 2 0 1 1 4 0a7 7 0 0 1 4 6v3a4 4 0 0 0 2 3h-16a4 4 0 0 0 2 -3v-3a7 7 0 0 1 4 -6"/><path d="M9 17v1a3 3 0 0 0 6 0v-1"/><path d="M10.5 9.5l3 3m0 -3l-3 3"/></symbol><symbol id="file-alert" fill="none" stroke="currentColor" stroke-linecap="round" stroke-linejoin="round" stroke-width="2" class="icon icon-tabler icon-tabler-file-alert" viewBox="0 0 24 24"><path fill="none" stroke="none" d="M0 0h24v24H0z"/><path d="M14 3v4a1 1 0 0 0 1 1h4"/><path d="M17 21h-10a2 2 0 0 1 -2 -2v-14a2 2 0 0 1 2 -2h7l5 5v11a2 2 0 0 1 -2 2z"/><line x1="12" x2="12.01" y1="17" y2="17"/><line x1="12" x2="12" y1="11" y2="14"/></symbol><symbol id="file-analytics" fill="none" stroke="currentColor" stroke-linecap="round" stroke-linejoin="round" stroke-width="2" class="icon icon-tabler icon-tabler-file-analytics" viewBox="0 0 24 24"><path fill="none" stroke="none" d="M0 0h24v24H0z"/><path d="M14 3v4a1 1 0 0 0 1 1h4"/><path d="M17 21h-10a2 2 0 0 1 -2 -2v-14a2 2 0 0 1 2 -2h7l5 5v11a2 2 0 0 1 -2 2z"/><line x1="9" x2="9" y1="17" y2="12"/><line x1="12" x2="12" y1="17" y2="16"/><line x1="15" x2="15" y1="17" y2="14"/></symbol><symbol id="file-code-2" fill="none" stroke="currentColor" stroke-linecap="round" stroke-linejoin="round" stroke-width="2" class="icon icon-tabler icon-tabler-file-code-2" viewBox="0 0 24 24"><path fill="none" stroke="none" d="M0 0h24v24H0z"/><path d="M10 12h-1v5h1"/><path d="M14 12h1v5h-1"/><path d="M14 3v4a1 1 0 0 0 1 1h4"/><path d="M17 21h-10a2 2 0 0 1 -2 -2v-14a2 2 0 0 1 2 -2h7l5 5v11a2 2 0 0 1 -2 2z"/></symbol><symbol id="file-export" fill="none" stroke="currentColor" stroke-linecap="round" stroke-linejoin="round" stroke-width="2" class="icon icon-tabler icon-tabler-file-export" viewBox="0 0 24 24"><path fill="none" stroke="none" d="M0 0h24v24H0z"/><path d="M14 3v4a1 1 0 0 0 1 1h4"/><path d="M11.5 21h-4.5a2 2 0 0 1 -2 -2v-14a2 2 0 0 1 2 -2h7l5 5v5m-5 6h7m-3 -3l3 3l-3 3"/></symbol><symbol id="file-import" fill="none" stroke="currentColor" stroke-linecap="round" stroke-linejoin="round" stroke-width="2" class="icon icon-tabler icon-tabler-file-import" viewBox="0 0 24 24"><path fill="none" stroke="none" d="M0 0h24v24H0z"/><path d="M14 3v4a1 1 0 0 0 1 1h4"/><path d="M5 13v-8a2 2 0 0 1 2 -2h7l5 5v11a2 2 0 0 1 -2 2h-5.5m-9.5 -2h7m-3 -3l3 3l-3 3"/></symbol><symbol id="zoom-question" fill="none" stroke="currentColor" stroke-linecap="round" stroke-linejoin="round" stroke-width="2" class="icon icon-tabler icon-tabler-zoom-question" viewBox="0 0 24 24"><path fill="none" stroke="none" d="M0 0h24v24H0z"/><circle cx="10" cy="10" r="7"/><path d="M21 21l-6 -6"/><line x1="10" x2="10" y1="13" y2="13.01"/><path d="M10 10a1.5 1.5 0 1 0 -1.14 -2.474"/></symbol><use width="24" height="24" x="24" y="24" xlink:href="#arrow-big-down"/><use width="24" height="24" x="74" y="24" xlink:href="#arrow-big-left"/><use width="24" height="24" x="124" y="24" xlink:href="#arrow-big-right"/><use width="24" height="24" x="174" y="24" xlink:href="#arrow-big-top"/><use width="24" height="24" x="224" y="24" xlink:href="#arrows-double-ne-sw"/><use width="24" height="24" x="274" y="24" xlink:href="#arrows-double-nw-se"/><use width="24" height="24" x="24" y="74" xlink:href="#arrows-double-se-nw"/><use width="24" height="24" x="74" y="74" xlink:href="#arrows-double-sw-ne"/><use width="24" height="24" x="124" y="74" xlink:href="#bell-minus"/><use width="24" height="24" x="174" y="74" xlink:href="#bell-plus"/><use width="24" height="24" x="224" y="74" xlink:href="#bell-ringing-2"/><use width="24" height="24" x="274" y="74" xlink:href="#bell-x"/><use width="24" height="24" x="24" y="124" xlink:href="#file-alert"/><use width="24" height="24" x="74" y="124" xlink:href="#file-analytics"/><use width="24" height="24" x="124" y="124" xlink:href="#file-code-2"/><use width="24" height="24" x="174" y="124" xlink:href="#file-export"/><use width="24" height="24" x="224" y="124" xlink:href="#file-import"/><use width="24" height="24" x="274" y="124" xlink:href="#zoom-question"/></svg>