<svg xmlns="http://www.w3.org/2000/svg" xmlns:xlink="http://www.w3.org/1999/xlink" width="322" height="122" viewBox="0 0 322 122" style="color:#354052"><rect width="322" height="122" x="0" y="0" fill="#fff"/><symbol id="3d-cube-sphere" fill="none" stroke="currentColor" stroke-linecap="round" stroke-linejoin="round" stroke-width="2" class="icon icon-tabler icon-tabler-3d-cube-sphere" viewBox="0 0 24 24"><path stroke="none" d="M0 0h24v24H0z"/><path d="M6 17.6l-2 -1.1v-2.5"/><path d="M4 10v-2.5 l 2 -1.1"/><path d="M10 4.1l2 -1.1l2 1.1"/><path d="M18 6.4l2 1.1v2.5"/><path d="M20 14v2.5l-2 1.12"/><path d="M14 19.9l-2 1.1l-2 -1.1"/><line x1="12" x2="14" y1="12" y2="10.9"/><line x1="18" x2="20" y1="8.6" y2="7.5"/><line x1="12" x2="12" y1="12" y2="14.5"/><line x1="12" x2="12" y1="18.5" y2="21"/><path d="M12 12l-2-1.12"/><line x1="6" x2="4" y1="8.6" y2="7.5"/></symbol><symbol id="brand-windows" fill="none" stroke="currentColor" stroke-linecap="round" stroke-linejoin="round" stroke-width="2" class="icon icon-tabler icon-tabler-brand-windows" viewBox="0 0 24 24"><path stroke="none" d="M0 0h24v24H0z"/><path d="M17.8 20l-12 -1.5c-1 -.1 -1.8 -.9 -1.8 -1.9v-9.2c0 -1 .8 -1.8 1.8 -1.9l12 -1.5c1.2 -.1 2.2 .8 2.2 1.9v12.1c0 1.2 -1.1 2.1 -2.2 1.9 z"/><line x1="12" x2="12" y1="5" y2="19"/><line x1="4" x2="20" y1="12" y2="12"/></symbol><symbol id="cloud-fog" fill="none" stroke="currentColor" stroke-linecap="round" stroke-linejoin="round" stroke-width="2" class="icon icon-tabler icon-tabler-cloud-fog" viewBox="0 0 24 24"><path stroke="none" d="M0 0h24v24H0z"/><path d="M7 16a4.6 4.4 0 0 1 0 -9h0a5 4.5 0 0 1 11 2h1a3.5 3.5 0 0 1 0 7h-12"/><line x1="5" x2="19" y1="20" y2="20"/></symbol><symbol id="curly-loop" fill="none" stroke="currentColor" stroke-linecap="round" stroke-linejoin="round" stroke-width="2" class="icon icon-tabler icon-tabler-curly-loop" viewBox="0 0 24 24"><path stroke="none" d="M0 0h24v24H0z"/><path d="M21 8c-4 0-7 2-7 5a3 3 0 0 0 6 0c0-3-2.5-5-8-5s-8 2-8 5a3 3 0 0 0 6 0c0-3-3-5-7-5"/></symbol><symbol id="device-mobile-rotated" fill="none" stroke="currentColor" stroke-linecap="round" stroke-linejoin="round" stroke-width="2" class="icon icon-tabler icon-tabler-device-mobile-rotated" viewBox="0 0 24 24"><path stroke="none" d="M0 0h24v24H0z"/><g transform="rotate(90 12 12)"><rect width="10" height="16" x="7" y="4" rx="1"/><line x1="11" x2="13" y1="5" y2="5"/><line x1="12" x2="12" y1="17" y2="17.01"/></g></symbol><symbol id="file-phone" fill="none" stroke="currentColor" stroke-linecap="round" stroke-linejoin="round" stroke-width="2" class="icon icon-tabler icon-tabler-file-phone" viewBox="0 0 24 24"><path stroke="none" d="M0 0h24v24H0z"/><path d="M14 3v4a1 1 0 0 0 1 1h4"/><path d="M17 21h-10a2 2 0 0 1 -2 -2v-14a2 2 0 0 1 2 -2h7l5 5v11a2 2 0 0 1 -2 2z"/><path d="M9 12a.5 .5 0 0 0 1 0v-1a.5 .5 0 0 0 -1 0v1a5 5 0 0 0 5 5h1a.5 .5 0 0 0 0 -1h-1a.5 .5 0 0 0 0 1"/></symbol><symbol id="road-sign" fill="none" stroke="currentColor" stroke-linecap="round" stroke-linejoin="round" stroke-width="2" class="icon icon-tabler icon-tabler-road-sign" viewBox="0 0 24 24"><path stroke="none" d="M0 0h24v24H0z"/><path d="M10.5 20.4l-6.9-6.9c-.781-.781-.781-2.219 0-3l6.9-6.9c.781-.781 2.219-.781 3 0l6.9 6.9c.781.781.781 2.219 0 3l-6.9 6.9c-.781.781-2.219.781-3 0z"/><path d="M9 14v-2c0-.59.414-1 1-1h5"/><path d="M13 9l2 2-2 2"/></symbol><symbol id="smart-home" fill="none" stroke="currentColor" stroke-linecap="round" stroke-linejoin="round" stroke-width="2" class="icon icon-tabler icon-tabler-smart-home" viewBox="0 0 24 24"><path stroke="none" d="M0 0h24v24H0z"/><path d="M18.97 8.71l-5.333 -4.148a2.666 2.666 0 0 0 -3.274 0l-5.334 4.148a2.665 2.665 0 0 0 -1.029 2.105v7.2a2 2 0 0 0 2 2h12a2 2 0 0 0 2 -2v-7.2c0 -0.823 -0.38 -1.6 -1.03 -2.105"/><path d="M16 15c-2.21 1.333-5.792 1.333-8 0"/></symbol><symbol id="square-rotated" fill="none" stroke="currentColor" stroke-linecap="round" stroke-linejoin="round" stroke-width="2" class="icon icon-tabler icon-tabler-square-rotated" viewBox="0 0 24 24"><path stroke="none" d="M0 0h24v24H0z"/><path d="M10.5 20.4l-6.9-6.9c-.781-.781-.781-2.219 0-3l6.9-6.9c.781-.781 2.219-.781 3 0l6.9 6.9c.781.781.781 2.219 0 3l-6.9 6.9c-.781.781-2.219.781-3 0z"/></symbol><symbol id="step-into" fill="none" stroke="currentColor" stroke-linecap="round" stroke-linejoin="round" stroke-width="2" class="icon icon-tabler icon-tabler-step-into" viewBox="0 0 24 24"><path stroke="none" d="M0 0h24v24H0z"/><line x1="12" x2="12" y1="3" y2="15"/><line x1="16" x2="12" y1="11" y2="15"/><line x1="8" x2="12" y1="11" y2="15"/><circle cx="12" cy="20" r="1"/></symbol><symbol id="step-out" fill="none" stroke="currentColor" stroke-linecap="round" stroke-linejoin="round" stroke-width="2" class="icon icon-tabler icon-tabler-step-out" viewBox="0 0 24 24"><path stroke="none" d="M0 0h24v24H0z"/><line x1="12" x2="12" y1="3" y2="15"/><line x1="16" x2="12" y1="7" y2="3"/><line x1="8" x2="12" y1="7" y2="3"/><circle cx="12" cy="20" r="1"/></symbol><symbol id="tornado" fill="none" stroke="currentColor" stroke-linecap="round" stroke-linejoin="round" stroke-width="2" class="icon icon-tabler icon-tabler-tornado" viewBox="0 0 24 24"><path stroke="none" d="M0 0h24v24H0z"/><path d="M21 4h-18"/><path d="M13 16h-6"/><line x1="11" x2="15" y1="20" y2="20"/><line x1="6" x2="20" y1="8" y2="8"/><line x1="4" x2="16" y1="12" y2="12"/></symbol><use width="24" height="24" x="24" y="24" xlink:href="#3d-cube-sphere"/><use width="24" height="24" x="74" y="24" xlink:href="#brand-windows"/><use width="24" height="24" x="124" y="24" xlink:href="#cloud-fog"/><use width="24" height="24" x="174" y="24" xlink:href="#curly-loop"/><use width="24" height="24" x="224" y="24" xlink:href="#device-mobile-rotated"/><use width="24" height="24" x="274" y="24" xlink:href="#file-phone"/><use width="24" height="24" x="24" y="74" xlink:href="#road-sign"/><use width="24" height="24" x="74" y="74" xlink:href="#smart-home"/><use width="24" height="24" x="124" y="74" xlink:href="#square-rotated"/><use width="24" height="24" x="174" y="74" xlink:href="#step-into"/><use width="24" height="24" x="224" y="74" xlink:href="#step-out"/><use width="24" height="24" x="274" y="74" xlink:href="#tornado"/></svg>