<svg xmlns="http://www.w3.org/2000/svg" xmlns:xlink="http://www.w3.org/1999/xlink" width="322" height="122" viewBox="0 0 322 122" style="color:#354052"><rect width="322" height="122" x="0" y="0" fill="#fff"/><symbol id="arrow-bar-to-down" fill="none" stroke="currentColor" stroke-linecap="round" stroke-linejoin="round" stroke-width="2" class="icon icon-tabler icon-tabler-arrow-bar-to-down" viewBox="0 0 24 24"><path stroke="none" d="M0 0h24v24H0z"/><line x1="4" x2="20" y1="20" y2="20"/><line x1="12" x2="12" y1="14" y2="4"/><line x1="12" x2="16" y1="14" y2="10"/><line x1="12" x2="8" y1="14" y2="10"/></symbol><symbol id="arrow-bar-to-left" fill="none" stroke="currentColor" stroke-linecap="round" stroke-linejoin="round" stroke-width="2" class="icon icon-tabler icon-tabler-arrow-bar-to-left" viewBox="0 0 24 24"><path stroke="none" d="M0 0h24v24H0z"/><line x1="10" x2="20" y1="12" y2="12"/><line x1="10" x2="14" y1="12" y2="16"/><line x1="10" x2="14" y1="12" y2="8"/><line x1="4" x2="4" y1="4" y2="20"/></symbol><symbol id="arrow-bar-to-right" fill="none" stroke="currentColor" stroke-linecap="round" stroke-linejoin="round" stroke-width="2" class="icon icon-tabler icon-tabler-arrow-bar-to-right" viewBox="0 0 24 24"><path stroke="none" d="M0 0h24v24H0z"/><line x1="14" x2="4" y1="12" y2="12"/><line x1="14" x2="10" y1="12" y2="16"/><line x1="14" x2="10" y1="12" y2="8"/><line x1="20" x2="20" y1="4" y2="20"/></symbol><symbol id="arrow-bar-to-up" fill="none" stroke="currentColor" stroke-linecap="round" stroke-linejoin="round" stroke-width="2" class="icon icon-tabler icon-tabler-arrow-bar-to-up" viewBox="0 0 24 24"><path stroke="none" d="M0 0h24v24H0z"/><line x1="12" x2="12" y1="10" y2="20"/><line x1="12" x2="16" y1="10" y2="14"/><line x1="12" x2="8" y1="10" y2="14"/><line x1="4" x2="20" y1="4" y2="4"/></symbol><symbol id="brand-linkedin" fill="none" stroke="currentColor" stroke-linecap="round" stroke-linejoin="round" stroke-width="2" class="icon icon-tabler icon-tabler-brand-linkedin" viewBox="0 0 24 24"><path stroke="none" d="M0 0h24v24H0z"/><rect width="16" height="16" x="4" y="4" rx="2"/><line x1="8" x2="8" y1="11" y2="16"/><line x1="8" x2="8" y1="8" y2="8.01"/><path d="M12 16v-5"/><path d="M16 16v-3a2 2 0 0 0 -4 0"/></symbol><symbol id="brand-pinterest" fill="none" stroke="currentColor" stroke-linecap="round" stroke-linejoin="round" stroke-width="2" class="icon icon-tabler icon-tabler-brand-pinterest" viewBox="0 0 24 24"><path stroke="none" d="M0 0h24v24H0z"/><line x1="8" x2="12" y1="20" y2="11"/><path d="M10.7 14C11.137 15.263 12.13 16 13.25 16c2.071 0 3.75-1.554 3.75-4a5 5 0 1 0 -9.7 1.7"/><circle cx="12" cy="12" r="9"/></symbol><symbol id="brand-reddit" fill="none" stroke="currentColor" stroke-linecap="round" stroke-linejoin="round" stroke-width="2" class="icon icon-tabler icon-tabler-brand-reddit" viewBox="0 0 24 24"><path stroke="none" d="M0 0h24v24H0z"/><path d="M12 8c2.648 0 5.028 .826 6.675 2.14a2.5 2.5 0 0 1 2.326 4.36 C21 18.09 16.971 21 12 21c-4.875 0-8.845-2.8-8.996-6.294L3 14.5h0a2.5 2.5 0 0 1 2.326 -4.36C6.972 8.827 9.352 8 12 8z"/><path d="M12 8l1-5 6 1"/><circle cx="19" cy="4" r="1"/><circle cx="9" cy="13" r=".5" fill="currentColor"/><circle cx="15" cy="13" r=".5" fill="currentColor"/><path d="M10 17c.667 .333 1.333 .5 2 .5s1.333 -.167 2 -.5"/></symbol><symbol id="brand-tabler" fill="none" stroke="currentColor" stroke-linecap="round" stroke-linejoin="round" stroke-width="2" class="icon icon-tabler icon-tabler-brand-tabler" viewBox="0 0 24 24"><path stroke="none" d="M0 0h24v24H0z"/><path d="M8 9l3 3l-3 3"/><line x1="13" x2="16" y1="15" y2="15"/><rect width="18" height="16" x="3" y="4" rx="4"/></symbol><symbol id="brand-youtube" fill="none" stroke="currentColor" stroke-linecap="round" stroke-linejoin="round" stroke-width="2" class="icon icon-tabler icon-tabler-brand-youtube" viewBox="0 0 24 24"><path stroke="none" d="M0 0h24v24H0z"/><rect width="18" height="14" x="3" y="5" rx="4"/><path d="M10 9l5 3l-5 3z"/></symbol><symbol id="file-upload" fill="none" stroke="currentColor" stroke-linecap="round" stroke-linejoin="round" stroke-width="2" class="icon icon-tabler icon-tabler-file-upload" viewBox="0 0 24 24"><path stroke="none" d="M0 0h24v24H0z"/><path d="M14 3v4a1 1 0 0 0 1 1h4"/><path d="M17 21h-10a2 2 0 0 1 -2 -2v-14a2 2 0 0 1 2 -2h7l5 5v11a2 2 0 0 1 -2 2z"/><line x1="12" x2="12" y1="11" y2="17"/><polyline points="9 14 12 11 15 14"/></symbol><use width="24" height="24" x="24" y="24" xlink:href="#arrow-bar-to-down"/><use width="24" height="24" x="74" y="24" xlink:href="#arrow-bar-to-left"/><use width="24" height="24" x="124" y="24" xlink:href="#arrow-bar-to-right"/><use width="24" height="24" x="174" y="24" xlink:href="#arrow-bar-to-up"/><use width="24" height="24" x="224" y="24" xlink:href="#brand-linkedin"/><use width="24" height="24" x="274" y="24" xlink:href="#brand-pinterest"/><use width="24" height="24" x="24" y="74" xlink:href="#brand-reddit"/><use width="24" height="24" x="74" y="74" xlink:href="#brand-tabler"/><use width="24" height="24" x="124" y="74" xlink:href="#brand-youtube"/><use width="24" height="24" x="174" y="74" xlink:href="#file-upload"/></svg>