<svg xmlns="http://www.w3.org/2000/svg" xmlns:xlink="http://www.w3.org/1999/xlink" width="322" height="122" viewBox="0 0 322 122" style="color:#354052"><rect width="322" height="122" x="0" y="0" fill="#fff"/><symbol id="file-symlink" fill="none" stroke="currentColor" stroke-linecap="round" stroke-linejoin="round" stroke-width="2" class="icon icon-tabler icon-tabler-file-symlink" viewBox="0 0 24 24"><path fill="none" stroke="none" d="M0 0h24v24H0z"/><path d="M4 21v-4a3 3 0 0 1 3 -3h5"/><path d="M9 17l3-3-3-3"/><path d="M14 3v4a1 1 0 0 0 1 1h4"/><path d="M5 11v-6a2 2 0 0 1 2 -2h7l5 5v11a2 2 0 0 1 -2 2h-9.5"/></symbol><symbol id="fold-down" fill="none" stroke="currentColor" stroke-linecap="round" stroke-linejoin="round" stroke-width="2" class="icon icon-tabler icon-tabler-fold-down" viewBox="0 0 24 24"><path fill="none" stroke="none" d="M0 0h24v24H0z"/><path d="M12 11v8l3 -3m-6 0l3 3"/><line x1="9" x2="10" y1="7" y2="7"/><line x1="14" x2="15" y1="7" y2="7"/><line x1="19" x2="20" y1="7" y2="7"/><line x1="4" x2="5" y1="7" y2="7"/></symbol><symbol id="fold-up" fill="none" stroke="currentColor" stroke-linecap="round" stroke-linejoin="round" stroke-width="2" class="icon icon-tabler icon-tabler-fold-up" viewBox="0 0 24 24"><path fill="none" stroke="none" d="M0 0h24v24H0z"/><path d="M12 13v-8l-3 3m6 0l-3 -3"/><line x1="9" x2="10" y1="17" y2="17"/><line x1="14" x2="15" y1="17" y2="17"/><line x1="19" x2="20" y1="17" y2="17"/><line x1="4" x2="5" y1="17" y2="17"/></symbol><symbol id="fold" fill="none" stroke="currentColor" stroke-linecap="round" stroke-linejoin="round" stroke-width="2" class="icon icon-tabler icon-tabler-fold" viewBox="0 0 24 24"><path fill="none" stroke="none" d="M0 0h24v24H0z"/><path d="M12 3v6l3 -3m-6 0l3 3"/><path d="M12 21v-6l3 3m-6 0l3 -3"/><line x1="4" x2="5" y1="12" y2="12"/><line x1="9" x2="10" y1="12" y2="12"/><line x1="14" x2="15" y1="12" y2="12"/><line x1="19" x2="20" y1="12" y2="12"/></symbol><symbol id="refresh-alert" fill="none" stroke="currentColor" stroke-linecap="round" stroke-linejoin="round" stroke-width="2" class="icon icon-tabler icon-tabler-refresh-alert" viewBox="0 0 24 24"><path fill="none" stroke="none" d="M0 0h24v24H0z"/><path d="M20 11a8.1 8.1 0 0 0 -15.5 -2m-.5 -4v4h4"/><path d="M4 13a8.1 8.1 0 0 0 15.5 2m.5 4v-4h-4"/><line x1="12" x2="12" y1="9" y2="12"/><line x1="12" x2="12.01" y1="15" y2="15"/></symbol><symbol id="shield-lock" fill="none" stroke="currentColor" stroke-linecap="round" stroke-linejoin="round" stroke-width="2" class="icon icon-tabler icon-tabler-shield-lock" viewBox="0 0 24 24"><path fill="none" stroke="none" d="M0 0h24v24H0z"/><path d="M12 3a12 12 0 0 0 8.5 3a12 12 0 0 1 -8.5 15a12 12 0 0 1 -8.5 -15a12 12 0 0 0 8.5 -3"/><circle cx="12" cy="11" r="1"/><line x1="12" x2="12" y1="12" y2="14.5"/></symbol><symbol id="square-dot" fill="none" stroke="currentColor" stroke-linecap="round" stroke-linejoin="round" stroke-width="2" class="icon icon-tabler icon-tabler-square-dot" viewBox="0 0 24 24"><path fill="none" stroke="none" d="M0 0h24v24H0z"/><rect width="16" height="16" x="4" y="4" rx="2"/><circle cx="12" cy="12" r="1"/></symbol><symbol id="square-forbid-2" fill="none" stroke="currentColor" stroke-linecap="round" stroke-linejoin="round" stroke-width="2" class="icon icon-tabler icon-tabler-square-forbid-2" viewBox="0 0 24 24"><path fill="none" stroke="none" d="M0 0h24v24H0z"/><rect width="16" height="16" x="4" y="4" rx="2"/><line x1="9" x2="15" y1="15" y2="9"/></symbol><symbol id="square-forbid" fill="none" stroke="currentColor" stroke-linecap="round" stroke-linejoin="round" stroke-width="2" class="icon icon-tabler icon-tabler-square-forbid" viewBox="0 0 24 24"><path fill="none" stroke="none" d="M0 0h24v24H0z"/><rect width="16" height="16" x="4" y="4" rx="2"/><line x1="9" x2="15" y1="9" y2="15"/></symbol><use width="24" height="24" x="24" y="24" xlink:href="#file-symlink"/><use width="24" height="24" x="74" y="24" xlink:href="#fold-down"/><use width="24" height="24" x="124" y="24" xlink:href="#fold-up"/><use width="24" height="24" x="174" y="24" xlink:href="#fold"/><use width="24" height="24" x="224" y="24" xlink:href="#refresh-alert"/><use width="24" height="24" x="274" y="24" xlink:href="#shield-lock"/><use width="24" height="24" x="24" y="74" xlink:href="#square-dot"/><use width="24" height="24" x="74" y="74" xlink:href="#square-forbid-2"/><use width="24" height="24" x="124" y="74" xlink:href="#square-forbid"/></svg>