<svg xmlns="http://www.w3.org/2000/svg" xmlns:xlink="http://www.w3.org/1999/xlink" width="332" height="228" viewBox="0 0 332 228" style="color:#354052"><rect width="332" height="228" x="0" y="0" fill="#fff"/><symbol id="alien" fill="none" stroke="currentColor" stroke-linecap="round" stroke-linejoin="round" stroke-width="2" class="icon icon-tabler icon-tabler-alien" viewBox="0 0 24 24"><path stroke="none" d="M0 0h24v24H0z"/><path d="M11 17a2.5 2.5 0 0 0 2 0"/><path d="M12 3C7.336 3 4.604 5.331 4.138 8.595a11.816 11.816 0 0 0 1.998 8.592 10.777 10.777 0 003.199 3.064h0c1.666.999 3.664.999 5.33 0h0a10.777 10.777 0 0 0 3.199 -3.064 11.89 11.89 0 001.998-8.592C19.396 5.33 16.664 3 12 3z"/><line x1="8" x2="10" y1="11" y2="13"/><line x1="16" x2="14" y1="11" y2="13"/></symbol><symbol id="atom-2" fill="none" stroke="currentColor" stroke-linecap="round" stroke-linejoin="round" stroke-width="2" class="icon icon-tabler icon-tabler-atom-2" viewBox="0 0 24 24"><path stroke="none" d="M0 0h24v24H0z"/><circle cx="12" cy="12" r="3"/><line x1="12" x2="12" y1="21" y2="21.01"/><line x1="3" x2="3" y1="9" y2="9.01"/><line x1="21" x2="21" y1="9" y2="9.01"/><path d="M8 20.1a9 9 0 0 1 -5 -7.1"/><path d="M16 20.1a9 9 0 0 0 5 -7.1"/><path d="M6.2 5a9 9 0 0 1 11.4 0"/></symbol><symbol id="ball" fill="none" stroke="currentColor" stroke-linecap="round" stroke-linejoin="round" stroke-width="2" class="icon icon-tabler icon-tabler-ball" viewBox="0 0 24 24"><path stroke="none" d="M0 0h24v24H0z"/><circle cx="12" cy="12" r="9"/><line x1="5.65" x2="18.35" y1="5.65" y2="18.35"/><line x1="5.65" x2="18.35" y1="18.35" y2="5.65"/><path d="M12 3a9 9 0 0 0 9 9"/><path d="M3 12a9 9 0 0 1 9 9"/></symbol><symbol id="basket" fill="none" stroke="currentColor" stroke-linecap="round" stroke-linejoin="round" stroke-width="2" class="icon icon-tabler icon-tabler-basket" viewBox="0 0 24 24"><path stroke="none" d="M0 0h24v24H0z"/><polyline points="7 10 12 4 17 10"/><path d="M21 10l-2 8a2 2.5 0 0 1 -2 2h-10a2 2.5 0 0 1 -2 -2l-2 -8Z"/><circle cx="12" cy="15" r="2"/></symbol><symbol id="building-bank" fill="none" stroke="currentColor" stroke-linecap="round" stroke-linejoin="round" stroke-width="2" class="icon icon-tabler icon-tabler-building-bank" viewBox="0 0 24 24"><path stroke="none" d="M0 0h24v24H0z"/><line x1="3" x2="21" y1="21" y2="21"/><line x1="3" x2="21" y1="10" y2="10"/><polyline points="5 6 12 3 19 6"/><line x1="4" x2="4" y1="10" y2="21"/><line x1="20" x2="20" y1="10" y2="21"/><line x1="8" x2="8" y1="14" y2="17"/><line x1="12" x2="12" y1="14" y2="17"/><line x1="16" x2="16" y1="14" y2="17"/></symbol><symbol id="building-warehouse" fill="none" stroke="currentColor" stroke-linecap="round" stroke-linejoin="round" stroke-width="2" class="icon icon-tabler icon-tabler-building-warehouse" viewBox="0 0 24 24"><path stroke="none" d="M0 0h24v24H0z"/><path d="M3 21v-13l9-4l9 4v13"/><path d="M13 13h4v8h-10v-6h6"/><path d="M13 21v-9a1 1 0 0 0 -1 -1h-2a1 1 0 0 0 -1 1v3"/></symbol><symbol id="bus" fill="none" stroke="currentColor" stroke-linecap="round" stroke-linejoin="round" stroke-width="2" class="icon icon-tabler icon-tabler-bus" viewBox="0 0 24 24"><path stroke="none" d="M0 0h24v24H0z"/><circle cx="6" cy="17" r="2"/><circle cx="18" cy="17" r="2"/><path d="M4 17h-2v-11a1 1 0 0 1 1 -1h14a5 7 0 0 1 5 7v5h-2m-4 0h-8"/><polyline points="16 5 17.5 12 22 12"/><line x1="2" x2="17" y1="10" y2="10"/><line x1="7" x2="7" y1="5" y2="10"/><line x1="12" x2="12" y1="5" y2="10"/></symbol><symbol id="clear-formatting" fill="none" stroke="currentColor" stroke-linecap="round" stroke-linejoin="round" stroke-width="2" class="icon icon-tabler icon-tabler-clear-formatting" viewBox="0 0 24 24"><path stroke="none" d="M0 0h24v24H0z"/><path d="M17 15l4 4m0 -4l-4 4"/><path d="M7 6v-1h11v1"/><line x1="7" x2="11" y1="19" y2="19"/><line x1="13" x2="9" y1="5" y2="19"/></symbol><symbol id="color-picker" fill="none" stroke="currentColor" stroke-linecap="round" stroke-linejoin="round" stroke-width="2" class="icon icon-tabler icon-tabler-color-picker" viewBox="0 0 24 24"><path stroke="none" d="M0 0h24v24H0z"/><line x1="11" x2="17" y1="7" y2="13"/><path d="M5 19v-4l9.7 -9.7a1 1 0 0 1 1.4 0l2.6 2.6a1 1 0 0 1 0 1.4l-9.7 9.7h-4"/></symbol><symbol id="exchange" fill="none" stroke="currentColor" stroke-linecap="round" stroke-linejoin="round" stroke-width="2" class="icon icon-tabler icon-tabler-exchange" viewBox="0 0 24 24"><path stroke="none" d="M0 0h24v24H0z"/><circle cx="5" cy="18" r="2"/><circle cx="19" cy="6" r="2"/><path d="M19 8v5a5 5 0 0 1 -5 5h-3l3 -3m0 6l-3 -3"/><path d="M5 16v-5a5 5 0 0 1 5 -5h3l-3 -3m0 6l3 -3"/></symbol><symbol id="firetruck" fill="none" stroke="currentColor" stroke-linecap="round" stroke-linejoin="round" stroke-width="2" class="icon icon-tabler icon-tabler-firetruck" viewBox="0 0 24 24"><path stroke="none" d="M0 0h24v24H0z"/><circle cx="5" cy="17" r="2"/><circle cx="17" cy="17" r="2"/><path d="M7 18h8m4 0h2v-6a5 5 0 0 0 -5 -5h-1l1.5 5h4.5"/><path d="M12 18v-11h3"/><polyline points="3 17 3 12 12 12"/><line x1="3" x2="21" y1="9" y2="3"/><line x1="6" x2="6" y1="12" y2="8"/></symbol><symbol id="forklift" fill="none" stroke="currentColor" stroke-linecap="round" stroke-linejoin="round" stroke-width="2" class="icon icon-tabler icon-tabler-forklift" viewBox="0 0 24 24"><path stroke="none" d="M0 0h24v24H0z"/><circle cx="5" cy="17" r="2"/><circle cx="14" cy="17" r="2"/><line x1="7" x2="12" y1="17" y2="17"/><path d="M3 17v-6h13v6"/><path d="M5 11v-4h4"/><path d="M9 11v-6h4l3 6"/><path d="M22 15h-3v-10"/><line x1="16" x2="19" y1="13" y2="13"/></symbol><symbol id="history" fill="none" stroke="currentColor" stroke-linecap="round" stroke-linejoin="round" stroke-width="2" class="icon icon-tabler icon-tabler-history" viewBox="0 0 24 24"><path stroke="none" d="M0 0h24v24H0z"/><polyline points="12 8 12 12 14 14"/><path d="M3.05 11a9 9 0 1 1 .5 4m-.5 5v-5h5"/></symbol><symbol id="math" fill="none" stroke="currentColor" stroke-linecap="round" stroke-linejoin="round" stroke-width="2" class="icon icon-tabler icon-tabler-math" viewBox="0 0 24 24"><path stroke="none" d="M0 0h24v24H0z"/><path d="M16 13l4 4m0 -4l-4 4"/><path d="M20 5h-7l-4 14l-3 -6h-2"/></symbol><symbol id="social" fill="none" stroke="currentColor" stroke-linecap="round" stroke-linejoin="round" stroke-width="2" class="icon icon-tabler icon-tabler-social" viewBox="0 0 24 24"><path stroke="none" d="M0 0h24v24H0z"/><circle cx="12" cy="5" r="2"/><circle cx="5" cy="19" r="2"/><circle cx="19" cy="19" r="2"/><circle cx="12" cy="14" r="3"/><line x1="12" x2="12" y1="7" y2="11"/><path d="M6.7 17.8l2.8 -2"/><path d="M17.3 17.8l-2.8 -2"/></symbol><symbol id="temperature-minus" fill="none" stroke="currentColor" stroke-linecap="round" stroke-linejoin="round" stroke-width="2" class="icon icon-tabler icon-tabler-temperature-minus" viewBox="0 0 24 24"><path stroke="none" d="M0 0h24v24H0z"/><path d="M8 13.5a4 4 0 1 0 4 0v-8.5a2 2 0 0 0 -4 0v8.5"/><line x1="8" x2="12" y1="9" y2="9"/><line x1="16" x2="22" y1="9" y2="9"/></symbol><symbol id="temperature-plus" fill="none" stroke="currentColor" stroke-linecap="round" stroke-linejoin="round" stroke-width="2" class="icon icon-tabler icon-tabler-temperature-plus" viewBox="0 0 24 24"><path stroke="none" d="M0 0h24v24H0z"/><path d="M8 13.5a4 4 0 1 0 4 0v-8.5a2 2 0 0 0 -4 0v8.5"/><line x1="8" x2="12" y1="9" y2="9"/><line x1="16" x2="22" y1="9" y2="9"/><line x1="19" x2="19" y1="6" y2="12"/></symbol><symbol id="terminal-2" fill="none" stroke="currentColor" stroke-linecap="round" stroke-linejoin="round" stroke-width="2" class="icon icon-tabler icon-tabler-terminal-2" viewBox="0 0 24 24"><path stroke="none" d="M0 0h24v24H0z"/><path d="M8 9l3 3l-3 3"/><line x1="13" x2="16" y1="15" y2="15"/><rect width="18" height="16" x="3" y="4" rx="2"/></symbol><symbol id="tir" fill="none" stroke="currentColor" stroke-linecap="round" stroke-linejoin="round" stroke-width="2" class="icon icon-tabler icon-tabler-tir" viewBox="0 0 24 24"><path stroke="none" d="M0 0h24v24H0z"/><circle cx="5" cy="17" r="2"/><circle cx="17" cy="17" r="2"/><path d="M7 18h8m4 0h2v-6a5 7 0 0 0 -5 -7h-1l1.5 7h4.5"/><path d="M12 18v-13h3"/><polyline points="3 17 3 12 12 12"/></symbol><symbol id="umbrella" fill="none" stroke="currentColor" stroke-linecap="round" stroke-linejoin="round" stroke-width="2" class="icon icon-tabler icon-tabler-umbrella" viewBox="0 0 24 24"><path stroke="none" d="M0 0h24v24H0z"/><path d="M4 12a8 8 0 0 1 16 0Z"/><path d="M12 12v6a2 2 0 0 0 4 0"/></symbol><symbol id="users" fill="none" stroke="currentColor" stroke-linecap="round" stroke-linejoin="round" stroke-width="2" class="icon icon-tabler icon-tabler-users" viewBox="0 0 24 24"><path stroke="none" d="M0 0h24v24H0z"/><circle cx="9" cy="7" r="4"/><path d="M3 21v-2a4 4 0 0 1 4 -4h4a4 4 0 0 1 4 4v2"/><path d="M16 3.13a4 4 0 0 1 0 7.75"/><path d="M21 21v-2a4 4 0 0 0 -3 -3.85"/></symbol><symbol id="viewport-narrow" fill="none" stroke="currentColor" stroke-linecap="round" stroke-linejoin="round" stroke-width="2" class="icon icon-tabler icon-tabler-viewport-narrow" viewBox="0 0 24 24"><path stroke="none" d="M0 0h24v24H0z"/><path d="M3 12h7l-3 -3m0 6l3 -3"/><path d="M21 12h-7l3 -3m0 6l-3 -3"/><path d="M9 6v-3h6v3"/><path d="M9 18v3h6v-3"/></symbol><symbol id="viewport-wide" fill="none" stroke="currentColor" stroke-linecap="round" stroke-linejoin="round" stroke-width="2" class="icon icon-tabler icon-tabler-viewport-wide" viewBox="0 0 24 24"><path stroke="none" d="M0 0h24v24H0z"/><path d="M10 12h-7l3 -3m0 6l-3 -3"/><path d="M14 12h7l-3 -3m0 6l3 -3"/><path d="M3 6v-3h18v3"/><path d="M3 18v3h18v-3"/></symbol><use width="24" height="24" x="24" y="24" xlink:href="#alien"/><use width="24" height="24" x="76" y="24" xlink:href="#atom-2"/><use width="24" height="24" x="128" y="24" xlink:href="#ball"/><use width="24" height="24" x="180" y="24" xlink:href="#basket"/><use width="24" height="24" x="232" y="24" xlink:href="#building-bank"/><use width="24" height="24" x="284" y="24" xlink:href="#building-warehouse"/><use width="24" height="24" x="24" y="76" xlink:href="#bus"/><use width="24" height="24" x="76" y="76" xlink:href="#clear-formatting"/><use width="24" height="24" x="128" y="76" xlink:href="#color-picker"/><use width="24" height="24" x="180" y="76" xlink:href="#exchange"/><use width="24" height="24" x="232" y="76" xlink:href="#firetruck"/><use width="24" height="24" x="284" y="76" xlink:href="#forklift"/><use width="24" height="24" x="24" y="128" xlink:href="#history"/><use width="24" height="24" x="76" y="128" xlink:href="#math"/><use width="24" height="24" x="128" y="128" xlink:href="#social"/><use width="24" height="24" x="180" y="128" xlink:href="#temperature-minus"/><use width="24" height="24" x="232" y="128" xlink:href="#temperature-plus"/><use width="24" height="24" x="284" y="128" xlink:href="#terminal-2"/><use width="24" height="24" x="24" y="180" xlink:href="#tir"/><use width="24" height="24" x="76" y="180" xlink:href="#umbrella"/><use width="24" height="24" x="128" y="180" xlink:href="#users"/><use width="24" height="24" x="180" y="180" xlink:href="#viewport-narrow"/><use width="24" height="24" x="232" y="180" xlink:href="#viewport-wide"/></svg>