<svg xmlns="http://www.w3.org/2000/svg" xmlns:xlink="http://www.w3.org/1999/xlink" width="322" height="172" viewBox="0 0 322 172" style="color:#354052"><rect width="322" height="172" x="0" y="0" fill="#fff"/><symbol id="brand-behance" fill="none" stroke="currentColor" stroke-linecap="round" stroke-linejoin="round" stroke-width="2" class="icon icon-tabler icon-tabler-brand-behance" viewBox="0 0 24 24"><path stroke="none" d="M0 0h24v24H0z"/><path d="M3 18v-12h4.5a3 3 0 0 1 0 6a3 3 0 0 1 0 6h-4.5"/><line x1="3" x2="7.5" y1="12" y2="12"/><path d="M14 13h7a3.5 3.5 0 0 0 -7 0v2a3.5 3.5 0 0 0 6.64 1"/><line x1="16" x2="19" y1="6" y2="6"/></symbol><symbol id="brand-codepen" fill="none" stroke="currentColor" stroke-linecap="round" stroke-linejoin="round" stroke-width="2" class="icon icon-tabler icon-tabler-brand-codepen" viewBox="0 0 24 24"><path stroke="none" d="M0 0h24v24H0z"/><path d="M3 15l9 6l9 -6l-9 -6l-9 6"/><path d="M3 9l9 6l9 -6l-9 -6l-9 6"/><line x1="3" x2="3" y1="9" y2="15"/><line x1="21" x2="21" y1="9" y2="15"/><line x1="12" x2="12" y1="3" y2="9"/><line x1="12" x2="12" y1="15" y2="21"/></symbol><symbol id="brand-medium" fill="none" stroke="currentColor" stroke-linecap="round" stroke-linejoin="round" stroke-width="2" class="icon icon-tabler icon-tabler-brand-medium" viewBox="0 0 24 24"><path stroke="none" d="M0 0h24v24H0z"/><rect width="16" height="16" x="4" y="4" rx="2"/><path d="M8 9h1l3 3l3 -3h1"/><line x1="8" x2="10" y1="15" y2="15"/><line x1="14" x2="16" y1="15" y2="15"/><line x1="9" x2="9" y1="9" y2="15"/><line x1="15" x2="15" y1="9" y2="15"/></symbol><symbol id="brand-messenger" fill="none" stroke="currentColor" stroke-linecap="round" stroke-linejoin="round" stroke-width="2" class="icon icon-tabler icon-tabler-brand-messenger" viewBox="0 0 24 24"><path stroke="none" d="M0 0h24v24H0z"/><path d="M3 20l1.3 -3.9a9 8 0 1 1 3.4 2.9l-4.7 1"/><path d="M8 13l3 -2l2 2l3 -2"/></symbol><symbol id="brand-slack" fill="none" stroke="currentColor" stroke-linecap="round" stroke-linejoin="round" stroke-width="2" class="icon icon-tabler icon-tabler-brand-slack" viewBox="0 0 24 24"><path stroke="none" d="M0 0h24v24H0z"/><path d="M12 12V6a2 2 0 0 1 4 0v6m0-2a2 2 0 1 1 2 2h-6"/><path d="M12 12h6a2 2 0 0 1 0 4h-6m2 0a2 2 0 1 1 -2 2v-6"/><path d="M12 12v6a2 2 0 0 1 -4 0v-6m0 2a2 2 0 1 1 -2 -2h6"/><path d="M12 12H6a2 2 0 0 1 0 -4h6m-2 0a2 2 0 1 1 2 -2v6"/></symbol><symbol id="brand-tiktok" fill="none" stroke="currentColor" stroke-linecap="round" stroke-linejoin="round" stroke-width="2" class="icon icon-tabler icon-tabler-brand-tiktok" viewBox="0 0 24 24"><path stroke="none" d="M0 0h24v24H0z"/><path d="M9 12a4 4 0 1 0 4 4v-12a5 5 0 0 0 5 5"/></symbol><symbol id="brand-whatsapp" fill="none" stroke="currentColor" stroke-linecap="round" stroke-linejoin="round" stroke-width="2" class="icon icon-tabler icon-tabler-brand-whatsapp" viewBox="0 0 24 24"><path stroke="none" d="M0 0h24v24H0z"/><path d="M3 21l1.65 -3.8a9 9 0 1 1 3.4 2.9l-5.05 .9"/><path d="M9 10a.5 .5 0 0 0 1 0v-1a.5 .5 0 0 0 -1 0v1a5 5 0 0 0 5 5h1a.5 .5 0 0 0 0 -1h-1a.5 .5 0 0 0 0 1"/></symbol><symbol id="chart-bubble" fill="none" stroke="currentColor" stroke-linecap="round" stroke-linejoin="round" stroke-width="2" class="icon icon-tabler icon-tabler-chart-bubble" viewBox="0 0 24 24"><path stroke="none" d="M0 0h24v24H0z"/><circle cx="6" cy="16" r="3"/><circle cx="16" cy="19" r="2"/><circle cx="14.5" cy="7.5" r="4.5"/></symbol><symbol id="comet" fill="none" stroke="currentColor" stroke-linecap="round" stroke-linejoin="round" stroke-width="2" class="icon icon-tabler icon-tabler-comet" viewBox="0 0 24 24"><path stroke="none" d="M0 0h24v24H0z"/><path d="M15.5 18.5l-3 1.5l.5-3.5-2-2 3-.5 1.5-3 1.5 3 3 .5-2 2 .5 3.5z"/><line x1="4" x2="11" y1="4" y2="11"/><line x1="9" x2="12.5" y1="4" y2="7.5"/><line x1="4" x2="7.5" y1="9" y2="12.5"/></symbol><symbol id="marquee" fill="none" stroke="currentColor" stroke-linecap="round" stroke-linejoin="round" stroke-width="2" class="icon icon-tabler icon-tabler-marquee" viewBox="0 0 24 24"><path stroke="none" d="M0 0h24v24H0z"/><path d="M4 6a2 2 0 0 1 2 -2m3 0h1.5m3 0h1.5m3 0a2 2 0 0 1 2 2m0 3v1.5m0 3v1.5m0 3a2 2 0 0 1 -2 2m-3 0h-1.5m-3 0h-1.5m-3 0a2 2 0 0 1 -2 -2m0 -3v-1.5m0 -3v-1.5m0 -3"/></symbol><symbol id="medal" fill="none" stroke="currentColor" stroke-linecap="round" stroke-linejoin="round" stroke-width="2" class="icon icon-tabler icon-tabler-medal" viewBox="0 0 24 24"><path stroke="none" d="M0 0h24v24H0z"/><path d="M12 4v3M8 4v6m8-6v6"/><path d="M12 18.5l-3 1.5l.5-3.5-2-2 3-.5 1.5-3 1.5 3 3 .5-2 2 .5 3.5z"/></symbol><symbol id="separator-horizontal" fill="none" stroke="currentColor" stroke-linecap="round" stroke-linejoin="round" stroke-width="2" class="icon icon-tabler icon-tabler-separator-horizontal" viewBox="0 0 24 24"><path stroke="none" d="M0 0h24v24H0z"/><line x1="4" x2="20" y1="12" y2="12"/><polyline points="8 8 12 4 16 8"/><polyline points="16 16 12 20 8 16"/></symbol><symbol id="separator-vertical" fill="none" stroke="currentColor" stroke-linecap="round" stroke-linejoin="round" stroke-width="2" class="icon icon-tabler icon-tabler-separator-vertical" viewBox="0 0 24 24"><path stroke="none" d="M0 0h24v24H0z"/><line x1="12" x2="12" y1="4" y2="20"/><polyline points="8 8 4 12 8 16"/><polyline points="16 16 20 12 16 8"/></symbol><symbol id="steering-wheel" fill="none" stroke="currentColor" stroke-linecap="round" stroke-linejoin="round" stroke-width="2" class="icon icon-tabler icon-tabler-steering-wheel" viewBox="0 0 24 24"><path stroke="none" d="M0 0h24v24H0z"/><circle cx="12" cy="12" r="9"/><circle cx="12" cy="12" r="2"/><line x1="12" x2="12" y1="14" y2="21"/><line x1="10" x2="3.25" y1="12" y2="10"/><line x1="14" x2="20.75" y1="12" y2="10"/></symbol><use width="24" height="24" x="24" y="24" xlink:href="#brand-behance"/><use width="24" height="24" x="74" y="24" xlink:href="#brand-codepen"/><use width="24" height="24" x="124" y="24" xlink:href="#brand-medium"/><use width="24" height="24" x="174" y="24" xlink:href="#brand-messenger"/><use width="24" height="24" x="224" y="24" xlink:href="#brand-slack"/><use width="24" height="24" x="274" y="24" xlink:href="#brand-tiktok"/><use width="24" height="24" x="24" y="74" xlink:href="#brand-whatsapp"/><use width="24" height="24" x="74" y="74" xlink:href="#chart-bubble"/><use width="24" height="24" x="124" y="74" xlink:href="#comet"/><use width="24" height="24" x="174" y="74" xlink:href="#marquee"/><use width="24" height="24" x="224" y="74" xlink:href="#medal"/><use width="24" height="24" x="274" y="74" xlink:href="#separator-horizontal"/><use width="24" height="24" x="24" y="124" xlink:href="#separator-vertical"/><use width="24" height="24" x="74" y="124" xlink:href="#steering-wheel"/></svg>