<svg xmlns="http://www.w3.org/2000/svg" xmlns:xlink="http://www.w3.org/1999/xlink" width="322" height="372" viewBox="0 0 322 372" style="color:#354052"><rect width="322" height="372" x="0" y="0" fill="#fff"/><symbol id="arrow-bottom-bar" fill="none" stroke="currentColor" stroke-linecap="round" stroke-linejoin="round" stroke-width="2" class="icon icon-tabler icon-tabler-arrow-bottom-bar" viewBox="0 0 24 24"><path fill="none" stroke="none" d="M0 0h24v24H0z"/><line x1="12" x2="12" y1="3" y2="21"/><path d="M9 18l3 3l3 -3"/><line x1="9" x2="15" y1="3" y2="3"/></symbol><symbol id="arrow-bottom-circle" fill="none" stroke="currentColor" stroke-linecap="round" stroke-linejoin="round" stroke-width="2" class="icon icon-tabler icon-tabler-arrow-bottom-circle" viewBox="0 0 24 24"><path fill="none" stroke="none" d="M0 0h24v24H0z"/><line x1="12" x2="12" y1="7" y2="21"/><path d="M9 18l3 3l3 -3"/><circle cx="12" cy="5" r="2"/></symbol><symbol id="arrow-bottom-square" fill="none" stroke="currentColor" stroke-linecap="round" stroke-linejoin="round" stroke-width="2" class="icon icon-tabler icon-tabler-arrow-bottom-square" viewBox="0 0 24 24"><path fill="none" stroke="none" d="M0 0h24v24H0z"/><line x1="12" x2="12" y1="7" y2="21"/><path d="M9 18l3 3l3 -3"/><path d="M14 3v4h-4v-4z"/></symbol><symbol id="arrow-bottom-tail" fill="none" stroke="currentColor" stroke-linecap="round" stroke-linejoin="round" stroke-width="2" class="icon icon-tabler icon-tabler-arrow-bottom-tail" viewBox="0 0 24 24"><path fill="none" stroke="none" d="M0 0h24v24H0z"/><line x1="12" x2="12" y1="6" y2="21"/><path d="M9 18l3 3l3 -3"/><path d="M9 3l3 3l3 -3"/></symbol><symbol id="arrow-left-bar" fill="none" stroke="currentColor" stroke-linecap="round" stroke-linejoin="round" stroke-width="2" class="icon icon-tabler icon-tabler-arrow-left-bar" viewBox="0 0 24 24"><path fill="none" stroke="none" d="M0 0h24v24H0z"/><line x1="21" x2="3" y1="12" y2="12"/><path d="M6 9l-3 3l3 3"/><line x1="21" x2="21" y1="9" y2="15"/></symbol><symbol id="arrow-left-square" fill="none" stroke="currentColor" stroke-linecap="round" stroke-linejoin="round" stroke-width="2" class="icon icon-tabler icon-tabler-arrow-left-square" viewBox="0 0 24 24"><path fill="none" stroke="none" d="M0 0h24v24H0z"/><line x1="17" x2="3" y1="12" y2="12"/><path d="M6 9l-3 3l3 3"/><path d="M21 14h-4v-4h4z"/></symbol><symbol id="arrow-left-tail" fill="none" stroke="currentColor" stroke-linecap="round" stroke-linejoin="round" stroke-width="2" class="icon icon-tabler icon-tabler-arrow-left-tail" viewBox="0 0 24 24"><path fill="none" stroke="none" d="M0 0h24v24H0z"/><line x1="18" x2="3" y1="12" y2="12"/><path d="M6 9l-3 3l3 3"/><path d="M21 9l-3 3l3 3"/></symbol><symbol id="arrow-loop-left" fill="none" stroke="currentColor" stroke-linecap="round" stroke-linejoin="round" stroke-width="2" class="icon icon-tabler icon-tabler-arrow-loop-left" viewBox="0 0 24 24"><path fill="none" stroke="none" d="M0 0h24v24H0z"/><path d="M13 21v-13a4 4 0 1 1 4 4h-13"/><path d="M7 15l-3 -3l3 -3"/></symbol><symbol id="arrow-loop-right" fill="none" stroke="currentColor" stroke-linecap="round" stroke-linejoin="round" stroke-width="2" class="icon icon-tabler icon-tabler-arrow-loop-right" viewBox="0 0 24 24"><path fill="none" stroke="none" d="M0 0h24v24H0z"/><path d="M12 21v-13a4 4 0 1 0 -4 4h13"/><path d="M18 15l3 -3l-3 -3"/></symbol><symbol id="arrow-right-bar" fill="none" stroke="currentColor" stroke-linecap="round" stroke-linejoin="round" stroke-width="2" class="icon icon-tabler icon-tabler-arrow-right-bar" viewBox="0 0 24 24"><path fill="none" stroke="none" d="M0 0h24v24H0z"/><path d="M18 15l3 -3l-3 -3"/><line x1="3" x2="21" y1="12" y2="12"/><line x1="3" x2="3" y1="9" y2="15"/></symbol><symbol id="arrow-right-square" fill="none" stroke="currentColor" stroke-linecap="round" stroke-linejoin="round" stroke-width="2" class="icon icon-tabler icon-tabler-arrow-right-square" viewBox="0 0 24 24"><path fill="none" stroke="none" d="M0 0h24v24H0z"/><line x1="7" x2="21" y1="12" y2="12"/><path d="M18 15l3 -3l-3 -3"/><path d="M3 10h4v4h-4z"/></symbol><symbol id="arrow-right-tail" fill="none" stroke="currentColor" stroke-linecap="round" stroke-linejoin="round" stroke-width="2" class="icon icon-tabler icon-tabler-arrow-right-tail" viewBox="0 0 24 24"><path fill="none" stroke="none" d="M0 0h24v24H0z"/><path d="M18 15l3 -3l-3 -3"/><path d="M3 15l3 -3l-3 -3"/><line x1="6" x2="21" y1="12" y2="12"/></symbol><symbol id="arrow-top-bar" fill="none" stroke="currentColor" stroke-linecap="round" stroke-linejoin="round" stroke-width="2" class="icon icon-tabler icon-tabler-arrow-top-bar" viewBox="0 0 24 24"><path fill="none" stroke="none" d="M0 0h24v24H0z"/><line x1="12" x2="12" y1="21" y2="3"/><path d="M15 6l-3 -3l-3 3"/><line x1="9" x2="15" y1="21" y2="21"/></symbol><symbol id="arrow-top-circle" fill="none" stroke="currentColor" stroke-linecap="round" stroke-linejoin="round" stroke-width="2" class="icon icon-tabler icon-tabler-arrow-top-circle" viewBox="0 0 24 24"><path fill="none" stroke="none" d="M0 0h24v24H0z"/><line x1="12" x2="12" y1="17" y2="3"/><path d="M15 6l-3 -3l-3 3"/><circle cx="12" cy="19" r="2"/></symbol><symbol id="arrow-top-square" fill="none" stroke="currentColor" stroke-linecap="round" stroke-linejoin="round" stroke-width="2" class="icon icon-tabler icon-tabler-arrow-top-square" viewBox="0 0 24 24"><path fill="none" stroke="none" d="M0 0h24v24H0z"/><line x1="12" x2="12" y1="17" y2="3"/><path d="M15 6l-3 -3l-3 3"/><path d="M10 21v-4h4v4z"/></symbol><symbol id="arrow-top-tail" fill="none" stroke="currentColor" stroke-linecap="round" stroke-linejoin="round" stroke-width="2" class="icon icon-tabler icon-tabler-arrow-top-tail" viewBox="0 0 24 24"><path fill="none" stroke="none" d="M0 0h24v24H0z"/><line x1="12" x2="12" y1="18" y2="3"/><path d="M15 6l-3 -3l-3 3"/><path d="M15 21l-3 -3l-3 3"/></symbol><symbol id="arrow-wave-left-down" fill="none" stroke="currentColor" stroke-linecap="round" stroke-linejoin="round" stroke-width="2" class="icon icon-tabler icon-tabler-arrow-wave-left-down" viewBox="0 0 24 24"><path fill="none" stroke="none" d="M0 0h24v24H0z"/><path d="M7 13.998h-4v-4"/><path d="M21 11.998c-.887 1.284 -2.48 2.033 -4 2c-1.52 .033 -3.113 -.716 -4 -2s-2.48 -2.033 -4 -2c-1.52 -.033 -3 1 -4 2l-2 2"/></symbol><symbol id="arrow-wave-left-up" fill="none" stroke="currentColor" stroke-linecap="round" stroke-linejoin="round" stroke-width="2" class="icon icon-tabler icon-tabler-arrow-wave-left-up" viewBox="0 0 24 24"><path fill="none" stroke="none" d="M0 0h24v24H0z"/><path d="M7 9.996h-4v4"/><path d="M21 11.996c-.887 -1.285 -2.48 -2.033 -4 -2c-1.52 -.033 -3.113 .715 -4 2c-.887 1.284 -2.48 2.033 -4 2c-1.52 .033 -3 -1 -4 -2l-2 -2"/></symbol><symbol id="arrow-wave-right-down" fill="none" stroke="currentColor" stroke-linecap="round" stroke-linejoin="round" stroke-width="2" class="icon icon-tabler icon-tabler-arrow-wave-right-down" viewBox="0 0 24 24"><path fill="none" stroke="none" d="M0 0h24v24H0z"/><path d="M17 13.998h4v-4"/><path d="M3 11.998c.887 1.284 2.48 2.033 4 2c1.52 .033 3.113 -.716 4 -2s2.48 -2.033 4 -2c1.52 -.033 3 1 4 2l2 2"/></symbol><symbol id="arrow-wave-right-up" fill="none" stroke="currentColor" stroke-linecap="round" stroke-linejoin="round" stroke-width="2" class="icon icon-tabler icon-tabler-arrow-wave-right-up" viewBox="0 0 24 24"><path fill="none" stroke="none" d="M0 0h24v24H0z"/><path d="M17 10h4v4"/><path d="M3 12c.887 -1.284 2.48 -2.033 4 -2c1.52 -.033 3.113 .716 4 2s2.48 2.033 4 2c1.52 .033 3 -1 4 -2l2 -2"/></symbol><symbol id="arrows-down-up" fill="none" stroke="currentColor" stroke-linecap="round" stroke-linejoin="round" stroke-width="2" class="icon icon-tabler icon-tabler-arrows-down-up" viewBox="0 0 24 24"><path fill="none" stroke="none" d="M0 0h24v24H0z"/><line x1="17" x2="17" y1="3" y2="21"/><path d="M10 18l-3 3l-3 -3"/><line x1="7" x2="7" y1="21" y2="3"/><path d="M20 6l-3 -3l-3 3"/></symbol><symbol id="arrows-down" fill="none" stroke="currentColor" stroke-linecap="round" stroke-linejoin="round" stroke-width="2" class="icon icon-tabler icon-tabler-arrows-down" viewBox="0 0 24 24"><path fill="none" stroke="none" d="M0 0h24v24H0z"/><line x1="7" x2="7" y1="21" y2="3"/><path d="M20 18l-3 3l-3 -3"/><path d="M4 18l3 3l3 -3"/><line x1="17" x2="17" y1="21" y2="3"/></symbol><symbol id="arrows-join-2" fill="none" stroke="currentColor" stroke-linecap="round" stroke-linejoin="round" stroke-width="2" class="icon icon-tabler icon-tabler-arrows-join-2" viewBox="0 0 24 24"><path fill="none" stroke="none" d="M0 0h24v24H0z"/><path d="M3 7h1.948c1.913 0 3.705 .933 4.802 2.5a5.861 5.861 0 0 0 4.802 2.5h6.448"/><path d="M3 17h1.95a5.854 5.854 0 0 0 4.798 -2.5a5.854 5.854 0 0 1 4.798 -2.5h5.454"/><path d="M18 15l3 -3l-3 -3"/></symbol><symbol id="arrows-join" fill="none" stroke="currentColor" stroke-linecap="round" stroke-linejoin="round" stroke-width="2" class="icon icon-tabler icon-tabler-arrows-join" viewBox="0 0 24 24"><path fill="none" stroke="none" d="M0 0h24v24H0z"/><path d="M3 7h5l3.5 5h9.5"/><path d="M3 17h5l3.495 -5"/><path d="M18 15l3 -3l-3 -3"/></symbol><symbol id="arrows-left-right" fill="none" stroke="currentColor" stroke-linecap="round" stroke-linejoin="round" stroke-width="2" class="icon icon-tabler icon-tabler-arrows-left-right" viewBox="0 0 24 24"><path fill="none" stroke="none" d="M0 0h24v24H0z"/><line x1="21" x2="3" y1="17" y2="17"/><path d="M6 10l-3 -3l3 -3"/><line x1="3" x2="21" y1="7" y2="7"/><path d="M18 20l3 -3l-3 -3"/></symbol><symbol id="arrows-left" fill="none" stroke="currentColor" stroke-linecap="round" stroke-linejoin="round" stroke-width="2" class="icon icon-tabler icon-tabler-arrows-left" viewBox="0 0 24 24"><path fill="none" stroke="none" d="M0 0h24v24H0z"/><line x1="3" x2="21" y1="7" y2="7"/><path d="M6 20l-3 -3l3 -3"/><path d="M6 4l-3 3l3 3"/><line x1="3" x2="21" y1="17" y2="17"/></symbol><symbol id="arrows-right-left" fill="none" stroke="currentColor" stroke-linecap="round" stroke-linejoin="round" stroke-width="2" class="icon icon-tabler icon-tabler-arrows-right-left" viewBox="0 0 24 24"><path fill="none" stroke="none" d="M0 0h24v24H0z"/><line x1="21" x2="3" y1="7" y2="7"/><path d="M18 10l3 -3l-3 -3"/><path d="M6 20l-3 -3l3 -3"/><line x1="3" x2="21" y1="17" y2="17"/></symbol><symbol id="arrows-right" fill="none" stroke="currentColor" stroke-linecap="round" stroke-linejoin="round" stroke-width="2" class="icon icon-tabler icon-tabler-arrows-right" viewBox="0 0 24 24"><path fill="none" stroke="none" d="M0 0h24v24H0z"/><line x1="21" x2="3" y1="17" y2="17"/><path d="M18 4l3 3l-3 3"/><path d="M18 20l3 -3l-3 -3"/><line x1="21" x2="3" y1="7" y2="7"/></symbol><symbol id="arrows-split-2" fill="none" stroke="currentColor" stroke-linecap="round" stroke-linejoin="round" stroke-width="2" class="icon icon-tabler icon-tabler-arrows-split-2" viewBox="0 0 24 24"><path fill="none" stroke="none" d="M0 0h24v24H0z"/><path d="M21 17h-5.397a5 5 0 0 1 -4.096 -2.133l-.514 -.734a5 5 0 0 0 -4.096 -2.133h-3.897"/><path d="M21 7h-5.395a5 5 0 0 0 -4.098 2.135l-.51 .73a5 5 0 0 1 -4.097 2.135h-3.9"/><path d="M18 10l3 -3l-3 -3"/><path d="M18 20l3 -3l-3 -3"/></symbol><symbol id="arrows-split" fill="none" stroke="currentColor" stroke-linecap="round" stroke-linejoin="round" stroke-width="2" class="icon icon-tabler icon-tabler-arrows-split" viewBox="0 0 24 24"><path fill="none" stroke="none" d="M0 0h24v24H0z"/><path d="M21 17h-8l-3.5 -5h-6.5"/><path d="M21 7h-8l-3.495 5"/><path d="M18 10l3 -3l-3 -3"/><path d="M18 20l3 -3l-3 -3"/></symbol><symbol id="arrows-up-down" fill="none" stroke="currentColor" stroke-linecap="round" stroke-linejoin="round" stroke-width="2" class="icon icon-tabler icon-tabler-arrows-up-down" viewBox="0 0 24 24"><path fill="none" stroke="none" d="M0 0h24v24H0z"/><line x1="7" x2="7" y1="3" y2="21"/><path d="M10 6l-3 -3l-3 3"/><path d="M20 18l-3 3l-3 -3"/><line x1="17" x2="17" y1="21" y2="3"/></symbol><symbol id="arrows-up" fill="none" stroke="currentColor" stroke-linecap="round" stroke-linejoin="round" stroke-width="2" class="icon icon-tabler icon-tabler-arrows-up" viewBox="0 0 24 24"><path fill="none" stroke="none" d="M0 0h24v24H0z"/><line x1="17" x2="17" y1="3" y2="21"/><path d="M4 6l3 -3l3 3"/><path d="M20 6l-3 -3l-3 3"/><line x1="7" x2="7" y1="3" y2="21"/></symbol><symbol id="bone" fill="none" stroke="currentColor" stroke-linecap="round" stroke-linejoin="round" stroke-width="2" class="icon icon-tabler icon-tabler-bone" viewBox="0 0 24 24"><path fill="none" stroke="none" d="M0 0h24v24H0z"/><path d="M15 3a3 3 0 0 1 3 3a3 3 0 1 1 -2.12 5.122l-4.758 4.758a3 3 0 1 1 -5.117 2.297l-.005 -.177l-.176 -.005a3 3 0 1 1 2.298 -5.115l4.758 -4.758a3 3 0 0 1 2.12 -5.122z"/></symbol><symbol id="layout-grid" fill="none" stroke="currentColor" stroke-linecap="round" stroke-linejoin="round" stroke-width="2" class="icon icon-tabler icon-tabler-layout-grid" viewBox="0 0 24 24"><path fill="none" stroke="none" d="M0 0h24v24H0z"/><rect width="6" height="6" x="4" y="4" rx="1"/><rect width="6" height="6" x="14" y="4" rx="1"/><rect width="6" height="6" x="4" y="14" rx="1"/><rect width="6" height="6" x="14" y="14" rx="1"/></symbol><symbol id="pizza" fill="none" stroke="currentColor" stroke-linecap="round" stroke-linejoin="round" stroke-width="2" class="icon icon-tabler icon-tabler-pizza" viewBox="0 0 24 24"><path fill="none" stroke="none" d="M0 0h24v24H0z"/><path d="M12 21.5c-3.04 0 -5.952 -.714 -8.5 -1.983l8.5 -16.517l8.5 16.517a19.09 19.09 0 0 1 -8.5 1.983z"/><path d="M5.2 15.772a14.939 14.939 0 0 0 6.995 1.728a14.944 14.944 0 0 0 6.638 -1.545"/><line x1="13" x2="13" y1="11.01" y2="11"/><line x1="11" x2="11" y1="14" y2="13.99"/></symbol><symbol id="rainbow" fill="none" stroke="currentColor" stroke-linecap="round" stroke-linejoin="round" stroke-width="2" class="icon icon-tabler icon-tabler-rainbow" viewBox="0 0 24 24"><path fill="none" stroke="none" d="M0 0h24v24H0z"/><path d="M22 17c0 -5.523 -4.477 -10 -10 -10s-10 4.477 -10 10"/><path d="M18 17a6 6 0 1 0 -12 0"/><path d="M14 17a2 2 0 1 0 -4 0"/></symbol><symbol id="switch-2" fill="none" stroke="currentColor" stroke-linecap="round" stroke-linejoin="round" stroke-width="2" class="icon icon-tabler icon-tabler-switch-2" viewBox="0 0 24 24"><path fill="none" stroke="none" d="M0 0h24v24H0z"/><path d="M3 17h5l1.67 -2.386m3.66 -5.227l1.67 -2.387h6"/><path d="M18 4l3 3l-3 3"/><path d="M3 7h5l7 10h6"/><path d="M18 20l3 -3l-3 -3"/></symbol><symbol id="switch-3" fill="none" stroke="currentColor" stroke-linecap="round" stroke-linejoin="round" stroke-width="2" class="icon icon-tabler icon-tabler-switch-3" viewBox="0 0 24 24"><path fill="none" stroke="none" d="M0 0h24v24H0z"/><path d="M3 17h2.397a5 5 0 0 0 4.096 -2.133l.177 -.253m3.66 -5.227l.177 -.254a5 5 0 0 1 4.096 -2.133h3.397"/><path d="M18 4l3 3l-3 3"/><path d="M3 7h2.397a5 5 0 0 1 4.096 2.133l4.014 5.734a5 5 0 0 0 4.096 2.133h3.397"/><path d="M18 20l3 -3l-3 -3"/></symbol><symbol id="trending-down-2" fill="none" stroke="currentColor" stroke-linecap="round" stroke-linejoin="round" stroke-width="2" class="icon icon-tabler icon-tabler-trending-down-2" viewBox="0 0 24 24"><path fill="none" stroke="none" d="M0 0h24v24H0z"/><path d="M3 6h5l7 10h6"/><path d="M18 19l3 -3l-3 -3"/></symbol><symbol id="trending-down-3" fill="none" stroke="currentColor" stroke-linecap="round" stroke-linejoin="round" stroke-width="2" class="icon icon-tabler icon-tabler-trending-down-3" viewBox="0 0 24 24"><path fill="none" stroke="none" d="M0 0h24v24H0z"/><path d="M3 6h2.397a5 5 0 0 1 4.096 2.133l4.014 5.734a5 5 0 0 0 4.096 2.133h3.397"/><path d="M18 19l3 -3l-3 -3"/></symbol><symbol id="trending-up-2" fill="none" stroke="currentColor" stroke-linecap="round" stroke-linejoin="round" stroke-width="2" class="icon icon-tabler icon-tabler-trending-up-2" viewBox="0 0 24 24"><path fill="none" stroke="none" d="M0 0h24v24H0z"/><path d="M18 5l3 3l-3 3"/><path d="M3 18h5l7 -10h6"/></symbol><symbol id="trending-up-3" fill="none" stroke="currentColor" stroke-linecap="round" stroke-linejoin="round" stroke-width="2" class="icon icon-tabler icon-tabler-trending-up-3" viewBox="0 0 24 24"><path fill="none" stroke="none" d="M0 0h24v24H0z"/><path d="M18 5l3 3l-3 3"/><path d="M3 18h2.397a5 5 0 0 0 4.096 -2.133l4.014 -5.734a5 5 0 0 1 4.096 -2.133h3.397"/></symbol><use width="24" height="24" x="24" y="24" xlink:href="#arrow-bottom-bar"/><use width="24" height="24" x="74" y="24" xlink:href="#arrow-bottom-circle"/><use width="24" height="24" x="124" y="24" xlink:href="#arrow-bottom-square"/><use width="24" height="24" x="174" y="24" xlink:href="#arrow-bottom-tail"/><use width="24" height="24" x="224" y="24" xlink:href="#arrow-left-bar"/><use width="24" height="24" x="274" y="24" xlink:href="#arrow-left-square"/><use width="24" height="24" x="24" y="74" xlink:href="#arrow-left-tail"/><use width="24" height="24" x="74" y="74" xlink:href="#arrow-loop-left"/><use width="24" height="24" x="124" y="74" xlink:href="#arrow-loop-right"/><use width="24" height="24" x="174" y="74" xlink:href="#arrow-right-bar"/><use width="24" height="24" x="224" y="74" xlink:href="#arrow-right-square"/><use width="24" height="24" x="274" y="74" xlink:href="#arrow-right-tail"/><use width="24" height="24" x="24" y="124" xlink:href="#arrow-top-bar"/><use width="24" height="24" x="74" y="124" xlink:href="#arrow-top-circle"/><use width="24" height="24" x="124" y="124" xlink:href="#arrow-top-square"/><use width="24" height="24" x="174" y="124" xlink:href="#arrow-top-tail"/><use width="24" height="24" x="224" y="124" xlink:href="#arrow-wave-left-down"/><use width="24" height="24" x="274" y="124" xlink:href="#arrow-wave-left-up"/><use width="24" height="24" x="24" y="174" xlink:href="#arrow-wave-right-down"/><use width="24" height="24" x="74" y="174" xlink:href="#arrow-wave-right-up"/><use width="24" height="24" x="124" y="174" xlink:href="#arrows-down-up"/><use width="24" height="24" x="174" y="174" xlink:href="#arrows-down"/><use width="24" height="24" x="224" y="174" xlink:href="#arrows-join-2"/><use width="24" height="24" x="274" y="174" xlink:href="#arrows-join"/><use width="24" height="24" x="24" y="224" xlink:href="#arrows-left-right"/><use width="24" height="24" x="74" y="224" xlink:href="#arrows-left"/><use width="24" height="24" x="124" y="224" xlink:href="#arrows-right-left"/><use width="24" height="24" x="174" y="224" xlink:href="#arrows-right"/><use width="24" height="24" x="224" y="224" xlink:href="#arrows-split-2"/><use width="24" height="24" x="274" y="224" xlink:href="#arrows-split"/><use width="24" height="24" x="24" y="274" xlink:href="#arrows-up-down"/><use width="24" height="24" x="74" y="274" xlink:href="#arrows-up"/><use width="24" height="24" x="124" y="274" xlink:href="#bone"/><use width="24" height="24" x="174" y="274" xlink:href="#layout-grid"/><use width="24" height="24" x="224" y="274" xlink:href="#pizza"/><use width="24" height="24" x="274" y="274" xlink:href="#rainbow"/><use width="24" height="24" x="24" y="324" xlink:href="#switch-2"/><use width="24" height="24" x="74" y="324" xlink:href="#switch-3"/><use width="24" height="24" x="124" y="324" xlink:href="#trending-down-2"/><use width="24" height="24" x="174" y="324" xlink:href="#trending-down-3"/><use width="24" height="24" x="224" y="324" xlink:href="#trending-up-2"/><use width="24" height="24" x="274" y="324" xlink:href="#trending-up-3"/></svg>