<svg xmlns="http://www.w3.org/2000/svg" xmlns:xlink="http://www.w3.org/1999/xlink" width="322" height="172" viewBox="0 0 322 172" style="color:#354052"><rect width="322" height="172" x="0" y="0" fill="#fff"/><symbol id="brand-figma" fill="none" stroke="currentColor" stroke-linecap="round" stroke-linejoin="round" stroke-width="2" class="icon icon-tabler icon-tabler-brand-figma" viewBox="0 0 24 24"><path stroke="none" d="M0 0h24v24H0z"/><circle cx="15" cy="12" r="3"/><rect width="12" height="6" x="6" y="3" rx="3"/><path d="M9 9a3 3 0 0 0 0 6h3m-3 0a3 3 0 1 0 3 3v-15"/></symbol><symbol id="h-1" fill="none" stroke="currentColor" stroke-linecap="round" stroke-linejoin="round" stroke-width="2" class="icon icon-tabler icon-tabler-h-1" viewBox="0 0 24 24"><path stroke="none" d="M0 0h24v24H0z"/><line x1="3" x2="3" y1="5" y2="19"/><line x1="3" x2="12" y1="12" y2="12"/><line x1="12" x2="12" y1="5" y2="19"/><path d="M20 19v-10l-3 3"/></symbol><symbol id="h-2" fill="none" stroke="currentColor" stroke-linecap="round" stroke-linejoin="round" stroke-width="2" class="icon icon-tabler icon-tabler-h-2" viewBox="0 0 24 24"><path stroke="none" d="M0 0h24v24H0z"/><line x1="3" x2="3" y1="5" y2="19"/><line x1="3" x2="12" y1="12" y2="12"/><line x1="12" x2="12" y1="5" y2="19"/><path d="M21 19h-5 l 4.47 -5.96 a2.5 2.5 0 1 0 -4.47 -1.54"/></symbol><symbol id="h-3" fill="none" stroke="currentColor" stroke-linecap="round" stroke-linejoin="round" stroke-width="2" class="icon icon-tabler icon-tabler-h-3" viewBox="0 0 24 24"><path stroke="none" d="M0 0h24v24H0z"/><line x1="3" x2="3" y1="5" y2="19"/><line x1="3" x2="12" y1="12" y2="12"/><line x1="12" x2="12" y1="5" y2="19"/><path d="M16 11.5a2.5 2.5 0 1 1 2.5 2.5a2.5 2.5 0 1 1 -2.5 2.5"/></symbol><symbol id="h-4" fill="none" stroke="currentColor" stroke-linecap="round" stroke-linejoin="round" stroke-width="2" class="icon icon-tabler icon-tabler-h-4" viewBox="0 0 24 24"><path stroke="none" d="M0 0h24v24H0z"/><line x1="3" x2="3" y1="5" y2="19"/><line x1="3" x2="12" y1="12" y2="12"/><line x1="12" x2="12" y1="5" y2="19"/><path d="M20 19v-10l-5 8h7"/></symbol><symbol id="h-5" fill="none" stroke="currentColor" stroke-linecap="round" stroke-linejoin="round" stroke-width="2" class="icon icon-tabler icon-tabler-h-5" viewBox="0 0 24 24"><path stroke="none" d="M0 0h24v24H0z"/><line x1="3" x2="3" y1="5" y2="19"/><line x1="3" x2="12" y1="12" y2="12"/><line x1="12" x2="12" y1="5" y2="19"/><path d="M16 18.27 a3 3 0 1 0 0 -4.537 l0 -4.733 h 5"/></symbol><symbol id="h-6" fill="none" stroke="currentColor" stroke-linecap="round" stroke-linejoin="round" stroke-width="2" class="icon icon-tabler icon-tabler-h-6" viewBox="0 0 24 24"><path stroke="none" d="M0 0h24v24H0z"/><line x1="3" x2="3" y1="5" y2="19"/><line x1="3" x2="12" y1="12" y2="12"/><line x1="12" x2="12" y1="5" y2="19"/><circle cx="18.5" cy="16.5" r="2.5"/><line x1="20" x2="16.5" y1="9" y2="15"/></symbol><symbol id="message-plus" fill="none" stroke="currentColor" stroke-linecap="round" stroke-linejoin="round" stroke-width="2" class="icon icon-tabler icon-tabler-message-plus" viewBox="0 0 24 24"><path stroke="none" d="M0 0h24v24H0z"/><path d="M4 21v-13a3 3 0 0 1 3 -3h10a3 3 0 0 1 3 3v6a3 3 0 0 1 -3 3h-9l-4 4"/><line x1="10" x2="14" y1="11" y2="11"/><line x1="12" x2="12" y1="9" y2="13"/></symbol><symbol id="message-report" fill="none" stroke="currentColor" stroke-linecap="round" stroke-linejoin="round" stroke-width="2" class="icon icon-tabler icon-tabler-message-report" viewBox="0 0 24 24"><path stroke="none" d="M0 0h24v24H0z"/><path d="M4 21v-13a3 3 0 0 1 3 -3h10a3 3 0 0 1 3 3v6a3 3 0 0 1 -3 3h-9l-4 4"/><line x1="12" x2="12" y1="8" y2="11"/><line x1="12" x2="12" y1="14" y2="14.01"/></symbol><symbol id="pin" fill="none" stroke="currentColor" stroke-linecap="round" stroke-linejoin="round" stroke-width="2" class="icon icon-tabler icon-tabler-pin" viewBox="0 0 24 24"><path stroke="none" d="M0 0h24v24H0z"/><line x1="4" x2="9.5" y1="20" y2="14.5"/><path d="M6 11l7 7l1 -1l1 -4l4 -4m-4 -4l-4 4l-4 1l-1 1"/><line x1="14" x2="20" y1="4" y2="10"/></symbol><symbol id="question-mark" fill="none" stroke="currentColor" stroke-linecap="round" stroke-linejoin="round" stroke-width="2" class="icon icon-tabler icon-tabler-question-mark" viewBox="0 0 24 24"><path stroke="none" d="M0 0h24v24H0z"/><path d="M8 8 a3.5 3 0 0 1 3.5 -3h1a3.5 3 0 0 1 3.5 3a3 3 0 0 1 -2 3a3 4 0 0 0 -2 4"/><line x1="12" x2="12" y1="19" y2="19.01"/></symbol><symbol id="select" fill="none" stroke="currentColor" stroke-linecap="round" stroke-linejoin="round" stroke-width="2" class="icon icon-tabler icon-tabler-select" viewBox="0 0 24 24"><path stroke="none" d="M0 0h24v24H0z"/><rect width="16" height="16" x="4" y="4" rx="2"/><path d="M9 11l3 3l3 -3"/></symbol><symbol id="subtask" fill="none" stroke="currentColor" stroke-linecap="round" stroke-linejoin="round" stroke-width="2" class="icon icon-tabler icon-tabler-subtask" viewBox="0 0 24 24"><path stroke="none" d="M0 0h24v24H0z"/><line x1="6" x2="12" y1="9" y2="9"/><line x1="4" x2="8" y1="5" y2="5"/><path d="M6 5v11a1 1 0 0 0 1 1h5"/><rect width="8" height="4" x="12" y="7" rx="1"/><rect width="8" height="4" x="12" y="15" rx="1"/></symbol><use width="24" height="24" x="24" y="24" xlink:href="#brand-figma"/><use width="24" height="24" x="74" y="24" xlink:href="#h-1"/><use width="24" height="24" x="124" y="24" xlink:href="#h-2"/><use width="24" height="24" x="174" y="24" xlink:href="#h-3"/><use width="24" height="24" x="224" y="24" xlink:href="#h-4"/><use width="24" height="24" x="274" y="24" xlink:href="#h-5"/><use width="24" height="24" x="24" y="74" xlink:href="#h-6"/><use width="24" height="24" x="74" y="74" xlink:href="#message-plus"/><use width="24" height="24" x="124" y="74" xlink:href="#message-report"/><use width="24" height="24" x="174" y="74" xlink:href="#pin"/><use width="24" height="24" x="224" y="74" xlink:href="#question-mark"/><use width="24" height="24" x="274" y="74" xlink:href="#select"/><use width="24" height="24" x="24" y="124" xlink:href="#subtask"/></svg>