<svg xmlns="http://www.w3.org/2000/svg" xmlns:xlink="http://www.w3.org/1999/xlink" width="322" height="72" viewBox="0 0 322 72" style="color:#354052"><rect width="322" height="72" x="0" y="0" fill="#fff"/><symbol id="brand-discord" fill="none" stroke="currentColor" stroke-linecap="round" stroke-linejoin="round" stroke-width="2" class="icon icon-tabler icon-tabler-brand-discord" viewBox="0 0 24 24"><path fill="none" stroke="none" d="M0 0h24v24H0z"/><circle cx="9" cy="12" r="1"/><circle cx="15" cy="12" r="1"/><path d="M7.5 7.5c3.5-1 5.5-1 9 0"/><path d="M7 16.5c3.5 1 6.5 1 10 0"/><path d="M15.5 17c0 1 1.5 3 2 3 1.5 0 2.833-1.667 3.5-3 .667-1.667.5-5.833-1.5-11.5C18.043 4.485 16.528 4.16 15 4l-1 2.5"/><path d="M8.5 17c0 1-1.356 3-1.832 3-1.429 0-2.698-1.667-3.333-3-.635-1.667-.476-5.833 1.428-11.5C6.151 4.485 7.545 4.16 9 4l1 2.5"/></symbol><symbol id="circle-square" fill="none" stroke="currentColor" stroke-linecap="round" stroke-linejoin="round" stroke-width="2" class="icon icon-tabler icon-tabler-circle-square" viewBox="0 0 24 24"><path fill="none" stroke="none" d="M0 0h24v24H0z"/><circle cx="9.5" cy="9.5" r="6.5"/><rect width="11" height="11" x="10" y="10" rx="2"/></symbol><symbol id="circles" fill="none" stroke="currentColor" stroke-linecap="round" stroke-linejoin="round" stroke-width="2" class="icon icon-tabler icon-tabler-circles" viewBox="0 0 24 24"><path fill="none" stroke="none" d="M0 0h24v24H0z"/><circle cx="12" cy="7" r="4"/><circle cx="6.5" cy="17" r="4"/><circle cx="17.5" cy="17" r="4"/></symbol><symbol id="moon-2" fill="none" stroke="currentColor" stroke-linecap="round" stroke-linejoin="round" stroke-width="2" class="icon icon-tabler icon-tabler-moon-2" viewBox="0 0 24 24"><path fill="none" stroke="none" d="M0 0h24v24H0z"/><path d="M16.418 4.157a8 8 0 0 0 0 15.686"/><circle cx="12" cy="12" r="9"/></symbol><symbol id="moon-stars" fill="none" stroke="currentColor" stroke-linecap="round" stroke-linejoin="round" stroke-width="2" class="icon icon-tabler icon-tabler-moon-stars" viewBox="0 0 24 24"><path fill="none" stroke="none" d="M0 0h24v24H0z"/><path d="M12 3 c 0.132 0 0.263 0.003 0.393 0.008 a7.5 7.5 0 0 0 7.92 12.446 a9 9 0 1 1 -8.313 -12.454 z"/><path d="M17 4a2 2 0 0 0 2 2a2 2 0 0 0 -2 2a2 2 0 0 0 -2 -2a2 2 0 0 0 2 -2"/><path d="M19 11h2m-1 -1v2"/></symbol><symbol id="triangle-square-circle" fill="none" stroke="currentColor" stroke-linecap="round" stroke-linejoin="round" stroke-width="2" class="icon icon-tabler icon-tabler-triangle-square-circle" viewBox="0 0 24 24"><path fill="none" stroke="none" d="M0 0h24v24H0z"/><path d="M12 3l-4 7h8z"/><circle cx="17" cy="17" r="3"/><rect width="6" height="6" x="4" y="14" rx="1"/></symbol><use width="24" height="24" x="24" y="24" xlink:href="#brand-discord"/><use width="24" height="24" x="74" y="24" xlink:href="#circle-square"/><use width="24" height="24" x="124" y="24" xlink:href="#circles"/><use width="24" height="24" x="174" y="24" xlink:href="#moon-2"/><use width="24" height="24" x="224" y="24" xlink:href="#moon-stars"/><use width="24" height="24" x="274" y="24" xlink:href="#triangle-square-circle"/></svg>