<svg xmlns="http://www.w3.org/2000/svg" xmlns:xlink="http://www.w3.org/1999/xlink" width="322" height="122" viewBox="0 0 322 122" style="color:#354052"><rect width="322" height="122" x="0" y="0" fill="#fff"/><symbol id="aspect-ratio" fill="none" stroke="currentColor" stroke-linecap="round" stroke-linejoin="round" stroke-width="2" class="icon icon-tabler icon-tabler-aspect-ratio" viewBox="0 0 24 24"><path fill="none" stroke="none" d="M0 0h24v24H0z"/><rect width="18" height="14" x="3" y="5" rx="2"/><path d="M7 12v-3h3"/><path d="M17 12v3h-3"/></symbol><symbol id="box-seam" fill="none" stroke="currentColor" stroke-linecap="round" stroke-linejoin="round" stroke-width="2" class="icon icon-tabler icon-tabler-box-seam" viewBox="0 0 24 24"><path fill="none" stroke="none" d="M0 0h24v24H0z"/><polyline points="12 3 20 7.5 20 16.5 12 21 4 16.5 4 7.5 12 3"/><line x1="12" x2="20" y1="12" y2="7.5"/><line x1="12" x2="12" y1="12" y2="21"/><line x1="12" x2="4" y1="12" y2="7.5"/><line x1="16" x2="8" y1="5.25" y2="9.75"/></symbol><symbol id="karate" fill="none" stroke="currentColor" stroke-linecap="round" stroke-linejoin="round" stroke-width="2" class="icon icon-tabler icon-tabler-karate" viewBox="0 0 24 24"><path fill="none" stroke="none" d="M0 0h24v24H0z"/><circle cx="18" cy="4" r="1"/><path d="M3 9l4.5 1l3 2.5"/><path d="M13 21v-8l3-5.5"/><path d="M8 4.5l4 2l4 1l4 3.5l-2 3.5"/></symbol><symbol id="panorama-horizontal" fill="none" stroke="currentColor" stroke-linecap="round" stroke-linejoin="round" stroke-width="2" class="icon icon-tabler icon-tabler-panorama-horizontal" viewBox="0 0 24 24"><path fill="none" stroke="none" d="M0 0h24v24H0z"/><path d="M4.338 5.53c5.106 1.932 10.211 1.932 15.317 .002a1 1 0 0 1 1.345 .934v11c0 .692 -.692 1.2 -1.34 .962c-5.107 -1.932 -10.214 -1.932 -15.321 0c-.648 .246 -1.339 -.242 -1.339 -.935v-11.027a1 1 0 0 1 1.338 -.935z"/></symbol><symbol id="panorama-vertical" fill="none" stroke="currentColor" stroke-linecap="round" stroke-linejoin="round" stroke-width="2" class="icon icon-tabler icon-tabler-panorama-vertical" viewBox="0 0 24 24"><path fill="none" stroke="none" d="M0 0h24v24H0z"/><path d="M18.463 4.338c-1.932 5.106 -1.932 10.211 -0 15.317a1 1 0 0 1 -.934 1.345h-11c-.692 0 -1.208 -.692 -.962 -1.34c1.932 -5.107 1.932 -10.214 0 -15.321c-.246 -.648 .243 -1.339 .935 -1.339h11.028c.693 0 1.18 .691 .935 1.338z"/></symbol><symbol id="picture-in-picture" fill="none" stroke="currentColor" stroke-linecap="round" stroke-linejoin="round" stroke-width="2" class="icon icon-tabler icon-tabler-picture-in-picture" viewBox="0 0 24 24"><path fill="none" stroke="none" d="M0 0h24v24H0z"/><rect width="18" height="14" x="3" y="5" rx="2"/><rect width="6" height="4" x="12" y="12" rx="1"/></symbol><symbol id="rectangle-vertical" fill="none" stroke="currentColor" stroke-linecap="round" stroke-linejoin="round" stroke-width="2" class="icon icon-tabler icon-tabler-rectangle-vertical" viewBox="0 0 24 24"><path fill="none" stroke="none" d="M0 0h24v24H0z"/><rect width="14" height="18" x="5" y="3" rx="2"/></symbol><symbol id="rectangle" fill="none" stroke="currentColor" stroke-linecap="round" stroke-linejoin="round" stroke-width="2" class="icon icon-tabler icon-tabler-rectangle" viewBox="0 0 24 24"><path fill="none" stroke="none" d="M0 0h24v24H0z"/><rect width="18" height="14" x="3" y="5" rx="2"/></symbol><symbol id="stars" fill="none" stroke="currentColor" stroke-linecap="round" stroke-linejoin="round" stroke-width="2" class="icon icon-tabler icon-tabler-stars" viewBox="0 0 24 24"><path fill="none" stroke="none" d="M0 0h24v24H0z"/><path d="M17.8 19.817l-2.172 1.138a0.392 .392 0 0 1 -.568 -.41l.415 -2.411l-1.757 -1.707a0.389 .389 0 0 1 .217 -.665l2.428 -.352l1.086 -2.193a0.392 .392 0 0 1 .702 0l1.086 2.193l2.428 .352a0.39 .39 0 0 1 .217 .665l-1.757 1.707l.414 2.41a0.39 .39 0 0 1 -.567 .411l-2.172 -1.138z"/><path d="M6.2 19.817l-2.172 1.138a0.392 .392 0 0 1 -.568 -.41l.415 -2.411l-1.757 -1.707a0.389 .389 0 0 1 .217 -.665l2.428 -.352l1.086 -2.193a0.392 .392 0 0 1 .702 0l1.086 2.193l2.428 .352a0.39 .39 0 0 1 .217 .665l-1.757 1.707l.414 2.41a0.39 .39 0 0 1 -.567 .411l-2.172 -1.138z"/><path d="M12 9.817l-2.172 1.138a0.392 .392 0 0 1 -.568 -.41l.415 -2.411l-1.757 -1.707a0.389 .389 0 0 1 .217 -.665l2.428 -.352l1.086 -2.193a0.392 .392 0 0 1 .702 0l1.086 2.193l2.428 .352a0.39 .39 0 0 1 .217 .665l-1.757 1.707l.414 2.41a0.39 .39 0 0 1 -.567 .411l-2.172 -1.138z"/></symbol><symbol id="traffic-lights" fill="none" stroke="currentColor" stroke-linecap="round" stroke-linejoin="round" stroke-width="2" class="icon icon-tabler icon-tabler-traffic-lights" viewBox="0 0 24 24"><path fill="none" stroke="none" d="M0 0h24v24H0z"/><rect width="10" height="20" x="7" y="2" rx="5"/><circle cx="12" cy="7" r="1"/><circle cx="12" cy="12" r="1"/><circle cx="12" cy="17" r="1"/></symbol><symbol id="vector-beizer-2" fill="none" stroke="currentColor" stroke-linecap="round" stroke-linejoin="round" stroke-width="2" class="icon icon-tabler icon-tabler-vector-beizer-2" viewBox="0 0 24 24"><path fill="none" stroke="none" d="M0 0h24v24H0z"/><rect width="4" height="4" x="3" y="3" rx="1"/><rect width="4" height="4" x="17" y="17" rx="1"/><line x1="7" x2="14" y1="5" y2="5"/><line x1="10" x2="17" y1="19" y2="19"/><circle cx="9" cy="19" r="1"/><circle cx="15" cy="5" r="1"/><path d="M7 5.5a5 6.5 0 0 1 5 6.5a5 6.5 0 0 0 5 6.5"/></symbol><symbol id="vector-beizer" fill="none" stroke="currentColor" stroke-linecap="round" stroke-linejoin="round" stroke-width="2" class="icon icon-tabler icon-tabler-vector-beizer" viewBox="0 0 24 24"><path fill="none" stroke="none" d="M0 0h24v24H0z"/><rect width="4" height="4" x="3" y="14" rx="1"/><rect width="4" height="4" x="17" y="14" rx="1"/><rect width="4" height="4" x="10" y="6" rx="1"/><path d="M10 8.5a6 6 0 0 0 -5 5.5"/><path d="M14 8.5a6 6 0 0 1 5 5.5"/><line x1="10" x2="4" y1="8" y2="8"/><line x1="20" x2="14" y1="8" y2="8"/><circle cx="3" cy="8" r="1"/><circle cx="21" cy="8" r="1"/></symbol><use width="24" height="24" x="24" y="24" xlink:href="#aspect-ratio"/><use width="24" height="24" x="74" y="24" xlink:href="#box-seam"/><use width="24" height="24" x="124" y="24" xlink:href="#karate"/><use width="24" height="24" x="174" y="24" xlink:href="#panorama-horizontal"/><use width="24" height="24" x="224" y="24" xlink:href="#panorama-vertical"/><use width="24" height="24" x="274" y="24" xlink:href="#picture-in-picture"/><use width="24" height="24" x="24" y="74" xlink:href="#rectangle-vertical"/><use width="24" height="24" x="74" y="74" xlink:href="#rectangle"/><use width="24" height="24" x="124" y="74" xlink:href="#stars"/><use width="24" height="24" x="174" y="74" xlink:href="#traffic-lights"/><use width="24" height="24" x="224" y="74" xlink:href="#vector-beizer-2"/><use width="24" height="24" x="274" y="74" xlink:href="#vector-beizer"/></svg>