<svg xmlns="http://www.w3.org/2000/svg" xmlns:xlink="http://www.w3.org/1999/xlink" width="322" height="172" viewBox="0 0 322 172" style="color:#354052"><rect width="322" height="172" x="0" y="0" fill="#fff"/><symbol id="file-info" fill="none" stroke="currentColor" stroke-linecap="round" stroke-linejoin="round" stroke-width="2" class="icon icon-tabler icon-tabler-file-info" viewBox="0 0 24 24"><path fill="none" stroke="none" d="M0 0h24v24H0z"/><path d="M14 3v4a1 1 0 0 0 1 1h4"/><path d="M17 21h-10a2 2 0 0 1 -2 -2v-14a2 2 0 0 1 2 -2h7l5 5v11a2 2 0 0 1 -2 2z"/><path d="M11 14h1v4h1"/><path d="M12 11h.01"/></symbol><symbol id="file-report" fill="none" stroke="currentColor" stroke-linecap="round" stroke-linejoin="round" stroke-width="2" class="icon icon-tabler icon-tabler-file-report" viewBox="0 0 24 24"><path fill="none" stroke="none" d="M0 0h24v24H0z"/><circle cx="17" cy="17" r="4"/><path d="M17 13v4h4"/><path d="M12 3v4a1 1 0 0 0 1 1h4"/><path d="M11.5 21h-6.5a2 2 0 0 1 -2 -2v-14a2 2 0 0 1 2 -2h7l5 5v2m0 3v4"/></symbol><symbol id="files-off" fill="none" stroke="currentColor" stroke-linecap="round" stroke-linejoin="round" stroke-width="2" class="icon icon-tabler icon-tabler-files-off" viewBox="0 0 24 24"><path fill="none" stroke="none" d="M0 0h24v24H0z"/><path d="M15 3v4a1 1 0 0 0 1 1h4"/><path d="M17 17h-6a2 2 0 0 1 -2 -2v-6m0 -4a2 2 0 0 1 2 -2h4l5 5v7c0 .294 -.063 .572 -.177 .823"/><path d="M16 17v2a2 2 0 0 1 -2 2h-7a2 2 0 0 1 -2 -2v-10a2 2 0 0 1 2 -2"/><line x1="3" x2="21" y1="3" y2="21"/></symbol><symbol id="files" fill="none" stroke="currentColor" stroke-linecap="round" stroke-linejoin="round" stroke-width="2" class="icon icon-tabler icon-tabler-files" viewBox="0 0 24 24"><path fill="none" stroke="none" d="M0 0h24v24H0z"/><path d="M15 3v4a1 1 0 0 0 1 1h4"/><path d="M18 17h-7a2 2 0 0 1 -2 -2v-10a2 2 0 0 1 2 -2h4l5 5v7a2 2 0 0 1 -2 2z"/><path d="M16 17v2a2 2 0 0 1 -2 2h-7a2 2 0 0 1 -2 -2v-10a2 2 0 0 1 2 -2h2"/></symbol><symbol id="number-0" fill="none" stroke="currentColor" stroke-linecap="round" stroke-linejoin="round" stroke-width="2" class="icon icon-tabler icon-tabler-number-0" viewBox="0 0 24 24"><path fill="none" stroke="none" d="M0 0h24v24H0z"/><path d="M16 16v-8"/><path d="M12 20a4 4 0 0 0 4 -4v-8a4 4 0 1 0 -8 0v8a4 4 0 0 0 4 4z"/></symbol><symbol id="number-1" fill="none" stroke="currentColor" stroke-linecap="round" stroke-linejoin="round" stroke-width="2" class="icon icon-tabler icon-tabler-number-1" viewBox="0 0 24 24"><path fill="none" stroke="none" d="M0 0h24v24H0z"/><path d="M13 20v-16l-5 5"/></symbol><symbol id="number-2" fill="none" stroke="currentColor" stroke-linecap="round" stroke-linejoin="round" stroke-width="2" class="icon icon-tabler icon-tabler-number-2" viewBox="0 0 24 24"><path fill="none" stroke="none" d="M0 0h24v24H0z"/><path d="M8 8a4 4 0 1 1 8 0c0 1.098 -.564 2.025 -1.159 2.815l-6.841 9.185h8"/></symbol><symbol id="number-3" fill="none" stroke="currentColor" stroke-linecap="round" stroke-linejoin="round" stroke-width="2" class="icon icon-tabler icon-tabler-number-3" viewBox="0 0 24 24"><path fill="none" stroke="none" d="M0 0h24v24H0z"/><path d="M12 12a4 4 0 1 0 -4 -4"/><path d="M8 16a4 4 0 1 0 4 -4"/></symbol><symbol id="number-4" fill="none" stroke="currentColor" stroke-linecap="round" stroke-linejoin="round" stroke-width="2" class="icon icon-tabler icon-tabler-number-4" viewBox="0 0 24 24"><path fill="none" stroke="none" d="M0 0h24v24H0z"/><path d="M15 20v-15l-8 11h10"/></symbol><symbol id="number-5" fill="none" stroke="currentColor" stroke-linecap="round" stroke-linejoin="round" stroke-width="2" class="icon icon-tabler icon-tabler-number-5" viewBox="0 0 24 24"><path fill="none" stroke="none" d="M0 0h24v24H0z"/><path d="M8 20h4a4 4 0 1 0 0 -8h-4v-8h8"/></symbol><symbol id="number-6" fill="none" stroke="currentColor" stroke-linecap="round" stroke-linejoin="round" stroke-width="2" class="icon icon-tabler icon-tabler-number-6" viewBox="0 0 24 24"><path fill="none" stroke="none" d="M0 0h24v24H0z"/><path d="M8 16a4 4 0 1 0 8 0v-1a4 4 0 1 0 -8 0"/><path d="M16 8a4 4 0 1 0 -8 0v8"/></symbol><symbol id="number-7" fill="none" stroke="currentColor" stroke-linecap="round" stroke-linejoin="round" stroke-width="2" class="icon icon-tabler icon-tabler-number-7" viewBox="0 0 24 24"><path fill="none" stroke="none" d="M0 0h24v24H0z"/><path d="M8 4h8l-4 16"/></symbol><symbol id="number-8" fill="none" stroke="currentColor" stroke-linecap="round" stroke-linejoin="round" stroke-width="2" class="icon icon-tabler icon-tabler-number-8" viewBox="0 0 24 24"><path fill="none" stroke="none" d="M0 0h24v24H0z"/><circle cx="12" cy="8" r="4"/><circle cx="12" cy="16" r="4"/></symbol><symbol id="number-9" fill="none" stroke="currentColor" stroke-linecap="round" stroke-linejoin="round" stroke-width="2" class="icon icon-tabler icon-tabler-number-9" viewBox="0 0 24 24"><path fill="none" stroke="none" d="M0 0h24v24H0z"/><path d="M16 8a4 4 0 1 0 -8 0v1a4 4 0 1 0 8 0"/><path d="M8 16a4 4 0 1 0 8 0v-8"/></symbol><symbol id="receipt-2" fill="none" stroke="currentColor" stroke-linecap="round" stroke-linejoin="round" stroke-width="2" class="icon icon-tabler icon-tabler-receipt-2" viewBox="0 0 24 24"><path fill="none" stroke="none" d="M0 0h24v24H0z"/><path d="M5 21v-16a2 2 0 0 1 2 -2h10a2 2 0 0 1 2 2v16l-3 -2l-2 2l-2 -2l-2 2l-2 -2l-3 2"/><path d="M14 8h-2.5a1.5 1.5 0 0 0 0 3h1a1.5 1.5 0 0 1 0 3h-2.5m2 0v1.5m0 -9v1.5"/></symbol><symbol id="receipt-off" fill="none" stroke="currentColor" stroke-linecap="round" stroke-linejoin="round" stroke-width="2" class="icon icon-tabler icon-tabler-receipt-off" viewBox="0 0 24 24"><path fill="none" stroke="none" d="M0 0h24v24H0z"/><path d="M5 21v-16m2 -2h10a2 2 0 0 1 2 2v10m0 4.01v1.99l-3 -2l-2 2l-2 -2l-2 2l-2 -2l-3 2"/><line x1="11" x2="15" y1="7" y2="7"/><line x1="9" x2="11" y1="11" y2="11"/><line x1="13" x2="15" y1="15" y2="15"/><line x1="15" x2="15" y1="11" y2="11.01"/><line x1="3" x2="21" y1="3" y2="21"/></symbol><symbol id="receipt-refund" fill="none" stroke="currentColor" stroke-linecap="round" stroke-linejoin="round" stroke-width="2" class="icon icon-tabler icon-tabler-receipt-refund" viewBox="0 0 24 24"><path fill="none" stroke="none" d="M0 0h24v24H0z"/><path d="M5 21v-16a2 2 0 0 1 2 -2h10a2 2 0 0 1 2 2v16l-3 -2l-2 2l-2 -2l-2 2l-2 -2l-3 2"/><path d="M15 14v-2a2 2 0 0 0 -2 -2h-4l2 -2m0 4l-2 -2"/></symbol><symbol id="receipt" fill="none" stroke="currentColor" stroke-linecap="round" stroke-linejoin="round" stroke-width="2" class="icon icon-tabler icon-tabler-receipt" viewBox="0 0 24 24"><path fill="none" stroke="none" d="M0 0h24v24H0z"/><path d="M5 21v-16a2 2 0 0 1 2 -2h10a2 2 0 0 1 2 2v16l-3 -2l-2 2l-2 -2l-2 2l-2 -2l-3 2m4 -14h6m-6 4h6m-2 4h2"/></symbol><use width="24" height="24" x="24" y="24" xlink:href="#file-info"/><use width="24" height="24" x="74" y="24" xlink:href="#file-report"/><use width="24" height="24" x="124" y="24" xlink:href="#files-off"/><use width="24" height="24" x="174" y="24" xlink:href="#files"/><use width="24" height="24" x="224" y="24" xlink:href="#number-0"/><use width="24" height="24" x="274" y="24" xlink:href="#number-1"/><use width="24" height="24" x="24" y="74" xlink:href="#number-2"/><use width="24" height="24" x="74" y="74" xlink:href="#number-3"/><use width="24" height="24" x="124" y="74" xlink:href="#number-4"/><use width="24" height="24" x="174" y="74" xlink:href="#number-5"/><use width="24" height="24" x="224" y="74" xlink:href="#number-6"/><use width="24" height="24" x="274" y="74" xlink:href="#number-7"/><use width="24" height="24" x="24" y="124" xlink:href="#number-8"/><use width="24" height="24" x="74" y="124" xlink:href="#number-9"/><use width="24" height="24" x="124" y="124" xlink:href="#receipt-2"/><use width="24" height="24" x="174" y="124" xlink:href="#receipt-off"/><use width="24" height="24" x="224" y="124" xlink:href="#receipt-refund"/><use width="24" height="24" x="274" y="124" xlink:href="#receipt"/></svg>