<svg xmlns="http://www.w3.org/2000/svg" xmlns:xlink="http://www.w3.org/1999/xlink" width="332" height="72" viewBox="0 0 332 72" style="color:#354052"><rect width="332" height="72" x="0" y="0" fill="#fff"/><symbol id="layout-cards" fill="none" stroke="currentColor" stroke-linecap="round" stroke-linejoin="round" stroke-width="2" class="icon icon-tabler icon-tabler-layout-cards" viewBox="0 0 24 24"><path stroke="none" d="M0 0h24v24H0z"/><rect width="6" height="16" x="4" y="4" rx="2"/><rect width="6" height="10" x="14" y="4" rx="2"/></symbol><symbol id="layout-list" fill="none" stroke="currentColor" stroke-linecap="round" stroke-linejoin="round" stroke-width="2" class="icon icon-tabler icon-tabler-layout-list" viewBox="0 0 24 24"><path stroke="none" d="M0 0h24v24H0z"/><rect width="16" height="6" x="4" y="4" rx="2"/><rect width="16" height="6" x="4" y="14" rx="2"/></symbol><symbol id="rotate-rectangle" fill="none" stroke="currentColor" stroke-linecap="round" stroke-linejoin="round" stroke-width="2" class="icon icon-tabler icon-tabler-rotate-rectangle" viewBox="0 0 24 24"><path stroke="none" d="M0 0h24v24H0z"/><path d="M16.3 5h.7a2 2 0 0 1 2 2v10a2 2 0 0 1 -2 2h-10a2 2 0 0 1 -2 -2v-10a2 2 0 0 1 2 -2h5l-2.82 -2.82m0 5.64l2.82 -2.82" transform="rotate(-45 12 12)"/></symbol><use width="24" height="24" x="24" y="24" xlink:href="#layout-cards"/><use width="24" height="24" x="76" y="24" xlink:href="#layout-list"/><use width="24" height="24" x="128" y="24" xlink:href="#rotate-rectangle"/></svg>