<svg xmlns="http://www.w3.org/2000/svg" width="24" height="24" fill="none" stroke="currentColor" stroke-linecap="round" stroke-linejoin="round" stroke-width="2" class="icon icon-tabler icon-tabler-alert-octagon" viewBox="0 0 24 24"><path fill="none" stroke="none" d="M0 0h24v24H0z"/><path d="M8.7 3h6.6c.3 0 .5 .1 .7 .3l4.7 4.7c.2 .2 .3 .4 .3 .7v6.6c0 .3 -.1 .5 -.3 .7l-4.7 4.7c-.2 .2 -.4 .3 -.7 .3h-6.6c-.3 0 -.5 -.1 -.7 -.3l-4.7 -4.7c-.2 -.2 -.3 -.4 -.3 -.7v-6.6c0 -.3 .1 -.5 .3 -.7l4.7 -4.7c.2 -.2 .4 -.3 .7 -.3z"/><line x1="12" x2="12" y1="8" y2="12"/><line x1="12" x2="12.01" y1="16" y2="16"/></svg>