<svg xmlns="http://www.w3.org/2000/svg" width="24" height="24" fill="none" stroke="currentColor" stroke-linecap="round" stroke-linejoin="round" stroke-width="2" class="icon icon-tabler icon-tabler-ball-american-football" viewBox="0 0 24 24"><path fill="none" stroke="none" d="M0 0h24v24H0z"/><line x1="15" x2="9" y1="9" y2="15"/><line x1="10" x2="12" y1="12" y2="14"/><line x1="12" x2="14" y1="10" y2="12"/><path d="M8 21a5 5 0 0 0 -5 -5"/><path d="M16 3c-7.18 0 -13 5.82 -13 13a5 5 0 0 0 5 5c7.18 0 13 -5.82 13 -13a5 5 0 0 0 -5 -5"/><path d="M16 3a5 5 0 0 0 5 5"/></svg>