<svg xmlns="http://www.w3.org/2000/svg" width="24" height="24" fill="none" stroke="currentColor" stroke-linecap="round" stroke-linejoin="round" stroke-width="2" class="icon icon-tabler icon-tabler-barcode" viewBox="0 0 24 24"><path fill="none" stroke="none" d="M0 0h24v24H0z"/><path d="M4 7v-1a2 2 0 0 1 2 -2h2"/><path d="M4 17v1a2 2 0 0 0 2 2h2"/><path d="M16 4h2a2 2 0 0 1 2 2v1"/><path d="M16 20h2a2 2 0 0 0 2 -2v-1"/><rect width="1" height="2" x="5" y="11"/><line x1="10" x2="10" y1="11" y2="13"/><rect width="1" height="2" x="14" y="11"/><line x1="19" x2="19" y1="11" y2="13"/></svg>