<svg xmlns="http://www.w3.org/2000/svg" width="24" height="24" fill="none" stroke="currentColor" stroke-linecap="round" stroke-linejoin="round" stroke-width="2" class="icon icon-tabler icon-tabler-brand-python" viewBox="0 0 24 24"><path fill="none" stroke="none" d="M0 0h24v24H0z"/><path d="M12 9h-7a2 2 0 0 0 -2 2v4a2 2 0 0 0 2 2h3"/><path d="M12 15h7a2 2 0 0 0 2 -2v-4a2 2 0 0 0 -2 -2h-3"/><path d="M8 9v-4a2 2 0 0 1 2 -2h4a2 2 0 0 1 2 2v5a2 2 0 0 1 -2 2h-4a2 2 0 0 0 -2 2v5a2 2 0 0 0 2 2h4a2 2 0 0 0 2 -2v-4"/><line x1="11" x2="11" y1="6" y2="6.01"/><line x1="13" x2="13" y1="18" y2="18.01"/></svg>