<svg xmlns="http://www.w3.org/2000/svg" width="24" height="24" fill="none" stroke="currentColor" stroke-linecap="round" stroke-linejoin="round" stroke-width="2" class="icon icon-tabler icon-tabler-certificate" viewBox="0 0 24 24"><path fill="none" stroke="none" d="M0 0h24v24H0z"/><circle cx="15" cy="15" r="3"/><path d="M13 17.5v4.5l2 -1.5l2 1.5v-4.5"/><path d="M10 19h-5a2 2 0 0 1 -2 -2v-10c0 -1.1 .9 -2 2 -2h14a2 2 0 0 1 2 2v10a2 2 0 0 1 -1 1.73"/><line x1="6" x2="18" y1="9" y2="9"/><line x1="6" x2="9" y1="12" y2="12"/><line x1="6" x2="8" y1="15" y2="15"/></svg>