<svg xmlns="http://www.w3.org/2000/svg" width="24" height="24" fill="none" stroke="currentColor" stroke-linecap="round" stroke-linejoin="round" stroke-width="2" class="icon icon-tabler icon-tabler-charging-pile" viewBox="0 0 24 24"><path fill="none" stroke="none" d="M0 0h24v24H0z"/><line x1="18" x2="17" y1="7" y2="8"/><path d="M14 11h1a2 2 0 0 1 2 2v3a1.5 1.5 0 0 0 3 0v-7l-3 -3"/><path d="M4 20v-14a2 2 0 0 1 2 -2h6a2 2 0 0 1 2 2v14"/><path d="M9 11.5l-1.5 2.5h3l-1.5 2.5"/><line x1="3" x2="15" y1="20" y2="20"/><line x1="4" x2="14" y1="8" y2="8"/></svg>