<svg xmlns="http://www.w3.org/2000/svg" width="24" height="24" fill="none" stroke="currentColor" stroke-linecap="round" stroke-linejoin="round" stroke-width="2" class="icon icon-tabler icon-tabler-face-id" viewBox="0 0 24 24"><path fill="none" stroke="none" d="M0 0h24v24H0z"/><path d="M4 8v-2a2 2 0 0 1 2 -2h2"/><path d="M4 16v2a2 2 0 0 0 2 2h2"/><path d="M16 4h2a2 2 0 0 1 2 2v2"/><path d="M16 20h2a2 2 0 0 0 2 -2v-2"/><line x1="9" x2="9.01" y1="10" y2="10"/><line x1="15" x2="15.01" y1="10" y2="10"/><path d="M9.5 15a3.5 3.5 0 0 0 5 0"/></svg>