<svg xmlns="http://www.w3.org/2000/svg" width="24" height="24" fill="none" stroke="currentColor" stroke-linecap="round" stroke-linejoin="round" stroke-width="2" class="icon icon-tabler icon-tabler-helicopter" viewBox="0 0 24 24"><path fill="none" stroke="none" d="M0 0h24v24H0z"/><path d="M3 10l1 2h6"/><path d="M12 9a2 2 0 0 0 -2 2v3c0 1.1 .9 2 2 2h7a2 2 0 0 0 2 -2c0 -3.31 -3.13 -5 -7 -5h-2z"/><line x1="13" x2="13" y1="9" y2="6"/><line x1="5" x2="20" y1="6" y2="6"/><path d="M15 9.1v3.9h5.5"/><line x1="15" x2="15" y1="19" y2="16"/><line x1="19" x2="11" y1="19" y2="19"/></svg>