<svg xmlns="http://www.w3.org/2000/svg" width="24" height="24" fill="none" stroke="currentColor" stroke-linecap="round" stroke-linejoin="round" stroke-width="2" class="icon icon-tabler icon-tabler-live-photo" viewBox="0 0 24 24"><path fill="none" stroke="none" d="M0 0h24v24H0z"/><circle cx="12" cy="12" r="1"/><circle cx="12" cy="12" r="5"/><line x1="15.9" x2="15.9" y1="20.11" y2="20.12"/><line x1="19.04" x2="19.04" y1="17.61" y2="17.62"/><line x1="20.77" x2="20.77" y1="14" y2="14.01"/><line x1="20.77" x2="20.77" y1="10" y2="10.01"/><line x1="19.04" x2="19.04" y1="6.39" y2="6.4"/><line x1="15.9" x2="15.9" y1="3.89" y2="3.9"/><line x1="12" x2="12" y1="3" y2="3.01"/><line x1="8.1" x2="8.1" y1="3.89" y2="3.9"/><line x1="4.96" x2="4.96" y1="6.39" y2="6.4"/><line x1="3.23" x2="3.23" y1="10" y2="10.01"/><line x1="3.23" x2="3.23" y1="14" y2="14.01"/><line x1="4.96" x2="4.96" y1="17.61" y2="17.62"/><line x1="8.1" x2="8.1" y1="20.11" y2="20.12"/><line x1="12" x2="12" y1="21" y2="21.01"/></svg>