<svg xmlns="http://www.w3.org/2000/svg" width="24" height="24" fill="none" stroke="currentColor" stroke-linecap="round" stroke-linejoin="round" stroke-width="2" class="icon icon-tabler icon-tabler-lock-off" viewBox="0 0 24 24"><path fill="none" stroke="none" d="M0 0h24v24H0z"/><line x1="3" x2="21" y1="3" y2="21"/><path d="M19 19a2 2 0 0 1 -2 2h-10a2 2 0 0 1 -2 -2v-6a2 2 0 0 1 2 -2h4m4 0h2a2 2 0 0 1 2 2v2"/><circle cx="12" cy="16" r="1"/><path d="M8 11v-3m.712 -3.278a4 4 0 0 1 7.288 2.278v4"/></svg>