<svg xmlns="http://www.w3.org/2000/svg" width="24" height="24" fill="none" stroke="currentColor" stroke-linecap="round" stroke-linejoin="round" stroke-width="2" class="icon icon-tabler icon-tabler-wand" viewBox="0 0 24 24"><path fill="none" stroke="none" d="M0 0h24v24H0z"/><polyline points="6 21 21 6 18 3 3 18 6 21"/><line x1="15" x2="18" y1="6" y2="9"/><path d="M9 3a2 2 0 0 0 2 2a2 2 0 0 0 -2 2a2 2 0 0 0 -2 -2a2 2 0 0 0 2 -2"/><path d="M19 13a2 2 0 0 0 2 2a2 2 0 0 0 -2 2a2 2 0 0 0 -2 -2a2 2 0 0 0 2 -2"/></svg>